<svg width="40" height="40" viewBox="0 0 40 40" fill="none" xmlns="http://www.w3.org/2000/svg">
<path fill-rule="evenodd" clip-rule="evenodd" d="M3.33398 5.00007C3.33398 4.0796 4.08018 3.3334 5.00065 3.3334H16.6673C17.5878 3.3334 18.334 4.0796 18.334 5.00007V16.6667C18.334 17.5872 17.5878 18.3334 16.6673 18.3334H5.00065C4.08018 18.3334 3.33398 17.5872 3.33398 16.6667V5.00007ZM8.33398 10.0001C8.33398 9.0796 9.08018 8.3334 10.0007 8.3334H11.6673C12.5878 8.3334 13.334 9.0796 13.334 10.0001V11.6667C13.334 12.5872 12.5878 13.3334 11.6673 13.3334H10.0007C9.08018 13.3334 8.33398 12.5872 8.33398 11.6667V10.0001Z" fill="#FF6EE9"/>
<path fill-rule="evenodd" clip-rule="evenodd" d="M3.33398 23.3334C3.33398 22.4129 4.08018 21.6667 5.00065 21.6667H16.6673C17.5878 21.6667 18.334 22.4129 18.334 23.3334V35.0001C18.334 35.9206 17.5878 36.6667 16.6673 36.6667H5.00065C4.08018 36.6667 3.33398 35.9206 3.33398 35.0001V23.3334ZM10.0007 26.6667C9.08018 26.6667 8.33398 27.4129 8.33398 28.3334V30.0001C8.33398 30.9206 9.08018 31.6667 10.0007 31.6667H11.6673C12.5878 31.6667 13.334 30.9206 13.334 30.0001V28.3334C13.334 27.4129 12.5878 26.6667 11.6673 26.6667H10.0007Z" fill="#FF6EE9"/>
<path fill-rule="evenodd" clip-rule="evenodd" d="M23.3327 3.3334C22.4122 3.3334 21.666 4.0796 21.666 5.00007V16.6667C21.666 17.5872 22.4122 18.3334 23.3327 18.3334H34.9993C35.9198 18.3334 36.666 17.5872 36.666 16.6667V5.00007C36.666 4.0796 35.9198 3.3334 34.9993 3.3334H23.3327ZM26.666 10.0001C26.666 9.0796 27.4122 8.3334 28.3327 8.3334H29.9993C30.9198 8.3334 31.666 9.0796 31.666 10.0001V11.6667C31.666 12.5872 30.9198 13.3334 29.9993 13.3334H28.3327C27.4122 13.3334 26.666 12.5872 26.666 11.6667V10.0001Z" fill="#FF6EE9"/>
<path d="M23.3327 21.6667C22.4122 21.6667 21.666 22.4129 21.666 23.3334V25C21.666 25.9205 22.4122 26.6667 23.3327 26.6667H24.9993V30C24.9993 30.9205 25.7455 31.6667 26.666 31.6667H28.3327C29.2532 31.6667 29.9993 30.9205 29.9993 30V26.6667C29.9993 25.7462 29.2532 25 28.3327 25H26.666V23.3334C26.666 22.4129 25.9198 21.6667 24.9993 21.6667H23.3327Z" fill="#FF6EE9"/>
<path d="M23.3327 31.6667C22.4122 31.6667 21.666 32.4129 21.666 33.3334V35C21.666 35.9205 22.4122 36.6667 23.3327 36.6667H24.9993C25.9198 36.6667 26.666 35.9205 26.666 35V33.3334C26.666 32.4129 25.9198 31.6667 24.9993 31.6667H23.3327Z" fill="#FF6EE9"/>
<path d="M30 23.3334C30 22.4129 30.7462 21.6667 31.6667 21.6667H33.3333C34.2538 21.6667 35 22.4129 35 23.3334V25C35 25.9205 34.2538 26.6667 33.3333 26.6667H31.6667C30.7462 26.6667 30 25.9205 30 25V23.3334Z" fill="#FF6EE9"/>
<path d="M31.6667 31.6667C30.7462 31.6667 30 32.4129 30 33.3334V35C30 35.9205 30.7462 36.6667 31.6667 36.6667H33.3333C34.2538 36.6667 35 35.9205 35 35V33.3334C35 32.4129 34.2538 31.6667 33.3333 31.6667H31.6667Z" fill="#FF6EE9"/>
</svg>
