<svg width="40" height="40" viewBox="0 0 40 40" fill="none" xmlns="http://www.w3.org/2000/svg">
<path d="M35.3187 12.2987H8.3925C7.70125 12.2987 7.1425 11.7387 7.1425 11.0487C7.1425 10.3587 7.70125 9.79874 8.3925 9.79874H30.3575V5.11124C30.3575 4.44499 30.0588 3.82374 29.5387 3.40749C29.0163 2.98874 28.34 2.83749 27.695 2.98249L4.2025 8.25749C3.20125 8.48249 2.5 9.35874 2.5 10.3862V34.89C2.5 36.0925 3.47875 37.0725 4.68125 37.0725H35.3187C36.5212 37.0725 37.5 36.0937 37.5 34.89V14.48C37.5 13.2775 36.5212 12.2987 35.3187 12.2987ZM31.3825 26.9137C30.2138 26.9137 29.2637 25.9625 29.2637 24.7937C29.2637 23.625 30.215 22.6737 31.3825 22.6737C32.5525 22.6737 33.5025 23.625 33.5025 24.7937C33.5025 25.9625 32.5525 26.9137 31.3825 26.9137Z" fill="#FF6EE9"/>
</svg>
