<svg width="20" height="20" viewBox="0 0 20 20" fill="none" xmlns="http://www.w3.org/2000/svg">
<path d="M12.1875 12.625C12.1875 15.0413 10.2288 17 7.8125 17H7.375C4.95874 17 3 15.0413 3 12.625H12.1875ZM17 12.625C17 15.0413 15.0413 17 12.625 17V12.625H17ZM7.59375 3C10.1308 3 12.1875 5.05669 12.1875 7.59375C12.1875 10.1308 10.1308 12.1875 7.59375 12.1875C5.05669 12.1875 3 10.1308 3 7.59375C3 5.05669 5.05669 3 7.59375 3ZM12.625 3C15.0413 3 17 4.95874 17 7.375V7.8125C17 10.2288 15.0413 12.1875 12.625 12.1875V3Z" fill="#FF7CEB"/>
</svg>
