<svg width="120" height="22" viewBox="0 0 120 22" fill="none" xmlns="http://www.w3.org/2000/svg">
<path d="M12.2249 2.624H9.60086V3.8147e-06H12.2249V2.624ZM15.4249 5.82401H12.8009V3.2H15.4249V5.82401ZM9.02486 2.624H6.40086V3.8147e-06H9.02486V2.624ZM15.4249 9.024H12.8009V6.4H15.4249V9.024ZM5.82486 2.624H3.20086V3.8147e-06H5.82486V2.624ZM2.62486 2.624H0.00085938V3.8147e-06H2.62486V2.624ZM12.2249 12.224H9.60086V9.6H12.2249V12.224ZM2.62486 5.82401H0.00085938V3.2H2.62486V5.82401ZM9.02486 12.224H6.40086V9.6H9.02486V12.224ZM2.62486 9.024H0.00085938V6.4H2.62486V9.024ZM5.82486 12.224H3.20086V9.6H5.82486V12.224ZM2.62486 12.224H0.00085938V9.6H2.62486V12.224ZM2.62486 15.424H0.00085938V12.8H2.62486V15.424ZM2.62486 18.624H0.00085938V16H2.62486V18.624ZM2.62486 21.824H0.00085938V19.2H2.62486V21.824ZM29.5611 2.624H26.9371V3.8147e-06H29.5611V2.624ZM32.7611 5.82401H30.1371V3.2H32.7611V5.82401ZM26.3611 2.624H23.7371V3.8147e-06H26.3611V2.624ZM32.7611 9.024H30.1371V6.4H32.7611V9.024ZM23.1611 2.624H20.5371V3.8147e-06H23.1611V2.624ZM32.7611 12.224H30.1371V9.6H32.7611V12.224ZM32.7611 15.424H30.1371V12.8H32.7611V15.424ZM19.9611 5.82401H17.3371V3.2H19.9611V5.82401ZM32.7611 18.624H30.1371V16H32.7611V18.624ZM19.9611 9.024H17.3371V6.4H19.9611V9.024ZM19.9611 12.224H17.3371V9.6H19.9611V12.224ZM29.5611 21.824H26.9371V19.2H29.5611V21.824ZM19.9611 15.424H17.3371V12.8H19.9611V15.424ZM26.3611 21.824H23.7371V19.2H26.3611V21.824ZM19.9611 18.624H17.3371V16H19.9611V18.624ZM23.1611 21.824H20.5371V19.2H23.1611V21.824ZM37.2974 2.624H34.6734V3.8147e-06H37.2974V2.624ZM37.2974 5.82401H34.6734V3.2H37.2974V5.82401ZM37.2974 9.024H34.6734V6.4H37.2974V9.024ZM50.0974 21.824H47.4734V19.2H50.0974V21.824ZM37.2974 12.224H34.6734V9.6H37.2974V12.224ZM46.8974 21.824H44.2734V19.2H46.8974V21.824ZM37.2974 15.424H34.6734V12.8H37.2974V15.424ZM43.6974 21.824H41.0734V19.2H43.6974V21.824ZM37.2974 18.624H34.6734V16H37.2974V18.624ZM40.4974 21.824H37.8734V19.2H40.4974V21.824ZM37.2974 21.824H34.6734V19.2H37.2974V21.824ZM67.4336 2.624H64.8096V3.8147e-06H67.4336V2.624ZM67.4336 5.82401H64.8096V3.2H67.4336V5.82401ZM67.4336 9.024H64.8096V6.4H67.4336V9.024ZM54.6336 2.624H52.0096V3.8147e-06H54.6336V2.624ZM64.2336 12.224H61.6096V9.6H64.2336V12.224ZM54.6336 5.82401H52.0096V3.2H54.6336V5.82401ZM54.6336 9.024H52.0096V6.4H54.6336V9.024ZM57.8336 12.224H55.2096V9.6H57.8336V12.224ZM61.0336 15.424H58.4096V12.8H61.0336V15.424ZM61.0336 18.624H58.4096V16H61.0336V18.624ZM61.0336 21.824H58.4096V19.2H61.0336V21.824ZM81.5699 2.624H78.9459V3.8147e-06H81.5699V2.624ZM84.7699 5.82401H82.1459V3.2H84.7699V5.82401ZM78.3699 2.624H75.7459V3.8147e-06H78.3699V2.624ZM84.7699 9.024H82.1459V6.4H84.7699V9.024ZM75.1699 2.624H72.5459V3.8147e-06H75.1699V2.624ZM71.9699 2.624H69.3459V3.8147e-06H71.9699V2.624ZM81.5699 12.224H78.9459V9.6H81.5699V12.224ZM71.9699 5.82401H69.3459V3.2H71.9699V5.82401ZM78.3699 12.224H75.7459V9.6H78.3699V12.224ZM71.9699 9.024H69.3459V6.4H71.9699V9.024ZM75.1699 12.224H72.5459V9.6H75.1699V12.224ZM71.9699 12.224H69.3459V9.6H71.9699V12.224ZM71.9699 15.424H69.3459V12.8H71.9699V15.424ZM71.9699 18.624H69.3459V16H71.9699V18.624ZM71.9699 21.824H69.3459V19.2H71.9699V21.824ZM98.9061 2.624H96.2821V3.8147e-06H98.9061V2.624ZM102.106 5.82401H99.4821V3.2H102.106V5.82401ZM95.7061 2.624H93.0821V3.8147e-06H95.7061V2.624ZM102.106 9.024H99.4821V6.4H102.106V9.024ZM92.5061 2.624H89.8821V3.8147e-06H92.5061V2.624ZM102.106 12.224H99.4821V9.6H102.106V12.224ZM98.9061 12.224H96.2821V9.6H98.9061V12.224ZM102.106 15.424H99.4821V12.8H102.106V15.424ZM89.3061 5.82401H86.6821V3.2H89.3061V5.82401ZM95.7061 12.224H93.0821V9.6H95.7061V12.224ZM102.106 18.624H99.4821V16H102.106V18.624ZM89.3061 9.024H86.6821V6.4H89.3061V9.024ZM92.5061 12.224H89.8821V9.6H92.5061V12.224ZM102.106 21.824H99.4821V19.2H102.106V21.824ZM89.3061 12.224H86.6821V9.6H89.3061V12.224ZM89.3061 15.424H86.6821V12.8H89.3061V15.424ZM89.3061 18.624H86.6821V16H89.3061V18.624ZM89.3061 21.824H86.6821V19.2H89.3061V21.824ZM119.442 2.624H116.818V3.8147e-06H119.442V2.624ZM119.442 5.82401H116.818V3.2H119.442V5.82401ZM119.442 9.024H116.818V6.4H119.442V9.024ZM106.642 2.624H104.018V3.8147e-06H106.642V2.624ZM116.242 12.224H113.618V9.6H116.242V12.224ZM106.642 5.82401H104.018V3.2H106.642V5.82401ZM106.642 9.024H104.018V6.4H106.642V9.024ZM109.842 12.224H107.218V9.6H109.842V12.224ZM113.042 15.424H110.418V12.8H113.042V15.424ZM113.042 18.624H110.418V16H113.042V18.624ZM113.042 21.824H110.418V19.2H113.042V21.824Z" fill="white"/>
</svg>
