<svg xmlns="http://www.w3.org/2000/svg" width="15" height="15" viewBox="0 0 15 15" fill="none">
  <g clip-path="url(#clip0_78_20840)">
    <path fill-rule="evenodd" clip-rule="evenodd" d="M7.47765 0C3.3427 0 0 3.36735 0 7.53321C0 10.8632 2.14179 13.682 5.11301 14.6796C5.48449 14.7546 5.62056 14.5176 5.62056 14.3181C5.62056 14.1435 5.60832 13.5448 5.60832 12.9211C3.52821 13.3702 3.09505 12.0231 3.09505 12.0231C2.76077 11.1501 2.26546 10.9257 2.26546 10.9257C1.58464 10.4642 2.31505 10.4642 2.31505 10.4642C3.07025 10.5141 3.46653 11.2374 3.46653 11.2374C4.13495 12.3848 5.21204 12.0606 5.64536 11.861C5.70719 11.3746 5.90541 11.0379 6.11587 10.8508C4.45684 10.6762 2.71133 10.0277 2.71133 7.13403C2.71133 6.31087 3.00827 5.6374 3.47878 5.11362C3.40454 4.92658 3.14449 4.15316 3.55316 3.11801C3.55316 3.11801 4.18454 2.91842 5.60816 3.89128C6.21767 3.72638 6.84624 3.64249 7.47765 3.64179C8.10903 3.64179 8.75265 3.72918 9.34699 3.89128C10.7708 2.91842 11.4021 3.11801 11.4021 3.11801C11.8108 4.15316 11.5506 4.92658 11.4764 5.11362C11.9593 5.6374 12.244 6.31087 12.244 7.13403C12.244 10.0277 10.4985 10.6636 8.82704 10.8508C9.09949 11.0878 9.33459 11.5367 9.33459 12.2477C9.33459 13.2579 9.32235 14.0686 9.32235 14.318C9.32235 14.5176 9.45857 14.7546 9.8299 14.6798C12.8011 13.6818 14.9429 10.8632 14.9429 7.53321C14.9552 3.36735 11.6002 0 7.47765 0Z" fill="#1E1E1E"/>
  </g>
  <defs>
    <clipPath id="clip0_78_20840">
      <rect width="15" height="14.6939" fill="white"/>
    </clipPath>
  </defs>
</svg>