<svg xmlns="http://www.w3.org/2000/svg" width="15" height="17" viewBox="0 0 15 17" fill="none">
  <path fill-rule="evenodd" clip-rule="evenodd" d="M1.03629 7.15869C5.05717 5.39552 7.74492 4.25592 9.09954 3.69686C12.9269 2.10572 13.7225 1.82619 14.2385 1.80469C14.346 1.80469 14.6041 1.82619 14.7761 1.9552C14.9051 2.06271 14.9481 2.21323 14.9696 2.32074C14.9911 2.42825 15.0126 2.66477 14.9911 2.85829C14.7761 5.02999 13.8945 10.341 13.4214 12.7707C13.2279 13.8028 12.8409 14.1468 12.4754 14.1898C11.6798 14.2544 11.0562 13.6523 10.2822 13.1577C9.07804 12.3622 8.38998 11.8676 7.20737 11.0936C5.85274 10.1905 6.73432 9.69592 7.50839 8.90035C7.70191 8.68533 11.2497 5.48153 11.3143 5.1805C11.3143 5.1375 11.3358 5.00849 11.2497 4.94398C11.1637 4.87948 11.0562 4.90098 10.9702 4.92248C10.8412 4.94398 8.90602 6.2341 5.14317 8.77134C4.58412 9.15837 4.08958 9.33039 3.63803 9.33039C3.14349 9.33039 2.1974 9.05086 1.48783 8.81434C0.627752 8.53482 -0.0603123 8.3843 0.00419369 7.91126C0.0471977 7.67474 0.39123 7.41671 1.03629 7.15869Z" fill="#1E1E1E"/>
</svg>