<svg xmlns="http://www.w3.org/2000/svg" width="16" height="16" viewBox="0 0 16 16" fill="none">
  <path d="M10.6673 8.60016L10.6673 11.4002C10.6673 13.7335 9.73398 14.6668 7.40065 14.6668L4.60065 14.6668C2.26732 14.6668 1.33398 13.7335 1.33398 11.4002L1.33398 8.60016C1.33398 6.26683 2.26732 5.3335 4.60065 5.3335L7.40065 5.3335C9.73398 5.3335 10.6673 6.26683 10.6673 8.60016Z" fill="#E0E0E0"/>
  <path d="M11.3998 1.3335L8.59984 1.3335C6.67914 1.3335 5.71152 1.97043 5.42907 3.49277C5.32748 4.04033 5.79484 4.50016 6.35175 4.50016L7.39984 4.50016C10.1998 4.50016 11.4998 5.80016 11.4998 8.60016L11.4998 9.64826C11.4998 10.2052 11.9597 10.6725 12.5072 10.5709C14.0296 10.2885 14.6665 9.32086 14.6665 7.40016L14.6665 4.60016C14.6665 2.26683 13.7332 1.3335 11.3998 1.3335Z" fill="#E0E0E0"/>
</svg>