<svg width="20" height="20" viewBox="0 0 20 20" fill="none" xmlns="http://www.w3.org/2000/svg">
<path d="M6.25 6.39143L6.25 5.5831C6.25 3.7081 7.75833 1.86643 9.63333 1.69143C11.8667 1.47476 13.75 3.2331 13.75 5.42476L13.75 6.57476" stroke="white" stroke-width="1.5" stroke-miterlimit="10" stroke-linecap="round" stroke-linejoin="round"/>
<path d="M7.49937 18.3332L12.4994 18.3332C15.8494 18.3332 16.4494 16.9915 16.6244 15.3582L17.2494 10.3582C17.4744 8.32484 16.891 6.6665 13.3327 6.6665L6.66603 6.6665C3.1077 6.6665 2.52437 8.32484 2.74937 10.3582L3.37437 15.3582C3.54937 16.9915 4.14937 18.3332 7.49937 18.3332Z" stroke="white" stroke-width="1.5" stroke-miterlimit="10" stroke-linecap="round" stroke-linejoin="round"/>
<path d="M12.9121 10.0002L12.9196 10.0002" stroke="white" stroke-width="2" stroke-linecap="round" stroke-linejoin="round"/>
<path d="M7.07811 10.0002L7.08559 10.0002" stroke="white" stroke-width="2" stroke-linecap="round" stroke-linejoin="round"/>
</svg>
