<svg width="20" height="20" viewBox="0 0 20 20" fill="none" xmlns="http://www.w3.org/2000/svg">
<path d="M7.63411 9.05817C7.55078 9.04984 7.45078 9.04984 7.35911 9.05817C5.37578 8.9915 3.80078 7.3665 3.80078 5.3665C3.80078 3.32484 5.45078 1.6665 7.50078 1.6665C9.54245 1.6665 11.2008 3.32484 11.2008 5.3665C11.1924 7.3665 9.61745 8.9915 7.63411 9.05817Z" stroke="#1E1E1E" stroke-width="1.5" stroke-linecap="round" stroke-linejoin="round"/>
<path d="M13.6747 3.3335C15.2914 3.3335 16.5914 4.64183 16.5914 6.25016C16.5914 7.82516 15.3414 9.1085 13.7831 9.16683C13.7164 9.1585 13.6414 9.1585 13.5664 9.16683" stroke="#1E1E1E" stroke-width="1.5" stroke-linecap="round" stroke-linejoin="round"/>
<path d="M3.46758 12.1335C1.45091 13.4835 1.45091 15.6835 3.46758 17.0252C5.75924 18.5585 9.51758 18.5585 11.8092 17.0252C13.8259 15.6752 13.8259 13.4752 11.8092 12.1335C9.52591 10.6085 5.76758 10.6085 3.46758 12.1335Z" stroke="#1E1E1E" stroke-width="1.5" stroke-linecap="round" stroke-linejoin="round"/>
<path d="M15.2832 16.6665C15.8832 16.5415 16.4499 16.2998 16.9165 15.9415C18.2165 14.9665 18.2165 13.3582 16.9165 12.3832C16.4582 12.0332 15.8999 11.7998 15.3082 11.6665" stroke="#1E1E1E" stroke-width="1.5" stroke-linecap="round" stroke-linejoin="round"/>
</svg>
