<svg width="16" height="16" viewBox="0 0 16 16" fill="none" xmlns="http://www.w3.org/2000/svg">
<g opacity="0.4">
<path d="M10.6673 8.59992L10.6673 11.3999C10.6673 13.7333 9.73398 14.6666 7.40065 14.6666L4.60065 14.6666C2.26732 14.6666 1.33398 13.7333 1.33398 11.3999L1.33398 8.59992C1.33398 6.26658 2.26732 5.33325 4.60065 5.33325L7.40065 5.33325C9.73398 5.33325 10.6673 6.26658 10.6673 8.59992Z" fill="#6D2EFF"/>
<path d="M11.3998 1.33325L8.59984 1.33325C6.67914 1.33325 5.71152 1.97018 5.42907 3.49252C5.32748 4.04009 5.79484 4.49992 6.35175 4.49992L7.39984 4.49992C10.1998 4.49992 11.4998 5.79992 11.4998 8.59992L11.4998 9.64802C11.4998 10.2049 11.9597 10.6723 12.5072 10.5707C14.0296 10.2882 14.6665 9.32062 14.6665 7.39992L14.6665 4.59992C14.6665 2.26659 13.7332 1.33325 11.3998 1.33325Z" fill="#6D2EFF"/>
</g>
</svg>
