<svg width="16" height="16" viewBox="0 0 16 16" fill="none" xmlns="http://www.w3.org/2000/svg">
<path d="M8.83958 2.40006L3.36624 8.1934C3.15958 8.4134 2.95958 8.84673 2.91958 9.14673L2.67291 11.3067C2.58624 12.0867 3.14624 12.6201 3.91958 12.4867L6.06624 12.1201C6.36624 12.0667 6.78624 11.8467 6.99291 11.6201L12.4662 5.82673C13.4129 4.82673 13.8396 3.68673 12.3662 2.2934C10.8996 0.913397 9.78624 1.40006 8.83958 2.40006Z" stroke="#FF6EE9" stroke-width="1.5" stroke-miterlimit="10" stroke-linecap="round" stroke-linejoin="round"/>
<path d="M7.92578 3.3667C8.21245 5.2067 9.70578 6.61337 11.5591 6.80003L7.92578 3.3667Z" fill="#FF6EE9"/>
<path d="M7.92578 3.3667C8.21245 5.2067 9.70578 6.61337 11.5591 6.80003" stroke="#FF6EE9" stroke-width="1.5" stroke-miterlimit="10" stroke-linecap="round" stroke-linejoin="round"/>
<path d="M2 14.6667L14 14.6667" stroke="#FF6EE9" stroke-width="1.5" stroke-miterlimit="10" stroke-linecap="round" stroke-linejoin="round"/>
</svg>
