<svg width="32" height="32" viewBox="0 0 32 32" fill="none" xmlns="http://www.w3.org/2000/svg">
<path d="M0 8C0 3.58172 3.58172 0 8 0H24C28.4183 0 32 3.58172 32 8V24C32 28.4183 28.4183 32 24 32H8C3.58172 32 0 28.4183 0 24V8Z" fill="#F6F6F6"/>
<path fill-rule="evenodd" clip-rule="evenodd" d="M8 8.8C8 8.35817 8.35817 8 8.8 8H14.4C14.8418 8 15.2 8.35817 15.2 8.8V14.4C15.2 14.8418 14.8418 15.2 14.4 15.2H8.8C8.35817 15.2 8 14.8418 8 14.4V8.8ZM10.4 11.2C10.4 10.7582 10.7582 10.4 11.2 10.4H12C12.4418 10.4 12.8 10.7582 12.8 11.2V12C12.8 12.4418 12.4418 12.8 12 12.8H11.2C10.7582 12.8 10.4 12.4418 10.4 12V11.2Z" fill="#1B1B1B"/>
<path fill-rule="evenodd" clip-rule="evenodd" d="M8 17.6C8 17.1581 8.35817 16.8 8.8 16.8H14.4C14.8418 16.8 15.2 17.1581 15.2 17.6V23.2C15.2 23.6418 14.8418 24 14.4 24H8.8C8.35817 24 8 23.6418 8 23.2V17.6ZM11.2 19.2C10.7582 19.2 10.4 19.5581 10.4 20V20.8C10.4 21.2418 10.7582 21.6 11.2 21.6H12C12.4418 21.6 12.8 21.2418 12.8 20.8V20C12.8 19.5581 12.4418 19.2 12 19.2H11.2Z" fill="#1B1B1B"/>
<path fill-rule="evenodd" clip-rule="evenodd" d="M17.6008 8C17.1589 8 16.8008 8.35817 16.8008 8.8V14.4C16.8008 14.8418 17.1589 15.2 17.6008 15.2H23.2008C23.6426 15.2 24.0008 14.8418 24.0008 14.4V8.8C24.0008 8.35817 23.6426 8 23.2008 8H17.6008ZM19.2008 11.2C19.2008 10.7582 19.5589 10.4 20.0008 10.4H20.8008C21.2426 10.4 21.6008 10.7582 21.6008 11.2V12C21.6008 12.4418 21.2426 12.8 20.8008 12.8H20.0008C19.5589 12.8 19.2008 12.4418 19.2008 12V11.2Z" fill="#1B1B1B"/>
<path d="M17.6008 16.8C17.1589 16.8 16.8008 17.1581 16.8008 17.6V18.4C16.8008 18.8418 17.1589 19.2 17.6008 19.2H18.4008V20.8C18.4008 21.2418 18.7589 21.6 19.2008 21.6H20.0008C20.4426 21.6 20.8008 21.2418 20.8008 20.8V19.2C20.8008 18.7581 20.4426 18.4 20.0008 18.4H19.2008V17.6C19.2008 17.1581 18.8426 16.8 18.4008 16.8H17.6008Z" fill="#1B1B1B"/>
<path d="M17.6008 21.5999C17.1589 21.5999 16.8008 21.9581 16.8008 22.3999V23.1999C16.8008 23.6417 17.1589 23.9999 17.6008 23.9999H18.4008C18.8426 23.9999 19.2008 23.6417 19.2008 23.1999V22.3999C19.2008 21.9581 18.8426 21.5999 18.4008 21.5999H17.6008Z" fill="#1B1B1B"/>
<path d="M20.7988 17.6C20.7988 17.1581 21.157 16.8 21.5988 16.8H22.3988C22.8407 16.8 23.1988 17.1581 23.1988 17.6V18.4C23.1988 18.8418 22.8407 19.2 22.3988 19.2H21.5988C21.157 19.2 20.7988 18.8418 20.7988 18.4V17.6Z" fill="#1B1B1B"/>
<path d="M21.5988 21.5999C21.157 21.5999 20.7988 21.9581 20.7988 22.3999V23.1999C20.7988 23.6417 21.157 23.9999 21.5988 23.9999H22.3988C22.8407 23.9999 23.1988 23.6417 23.1988 23.1999V22.3999C23.1988 21.9581 22.8407 21.5999 22.3988 21.5999H21.5988Z" fill="#1B1B1B"/>
</svg>
