<svg width="16" height="16" viewBox="0 0 16 16" fill="none" xmlns="http://www.w3.org/2000/svg">
<path fill-rule="evenodd" clip-rule="evenodd" d="M0 0.799996C0 0.358174 0.358175 0 0.799997 0H6.39998C6.84182 0 7.19998 0.358174 7.19998 0.799996V6.39997C7.19998 6.84181 6.84182 7.19997 6.39998 7.19997H0.799997C0.358175 7.19997 0 6.84181 0 6.39997V0.799996ZM2.39999 3.19999C2.39999 2.75816 2.75817 2.39999 3.19999 2.39999H3.99999C4.44181 2.39999 4.79998 2.75816 4.79998 3.19999V3.99998C4.79998 4.4418 4.44181 4.79998 3.99999 4.79998H3.19999C2.75817 4.79998 2.39999 4.4418 2.39999 3.99998V3.19999Z" fill="#1E1E1E"/>
<path fill-rule="evenodd" clip-rule="evenodd" d="M0 9.60005C0 9.15821 0.358175 8.80005 0.799997 8.80005H6.39998C6.84182 8.80005 7.19998 9.15821 7.19998 9.60005V15.2C7.19998 15.6419 6.84182 16 6.39998 16H0.799997C0.358175 16 0 15.6419 0 15.2V9.60005ZM3.19999 11.2C2.75817 11.2 2.39999 11.5582 2.39999 12V12.8C2.39999 13.2419 2.75817 13.6 3.19999 13.6H3.99999C4.44181 13.6 4.79998 13.2419 4.79998 12.8V12C4.79998 11.5582 4.44181 11.2 3.99999 11.2H3.19999Z" fill="#1E1E1E"/>
<path fill-rule="evenodd" clip-rule="evenodd" d="M9.60078 0C9.15894 0 8.80078 0.358174 8.80078 0.799996V6.39997C8.80078 6.84181 9.15894 7.19997 9.60078 7.19997H15.2008C15.6426 7.19997 16.0008 6.84181 16.0008 6.39997V0.799996C16.0008 0.358174 15.6426 0 15.2008 0H9.60078ZM11.2008 3.19999C11.2008 2.75816 11.5589 2.39999 12.0008 2.39999H12.8008C13.2426 2.39999 13.6008 2.75816 13.6008 3.19999V3.99998C13.6008 4.4418 13.2426 4.79998 12.8008 4.79998H12.0008C11.5589 4.79998 11.2008 4.4418 11.2008 3.99998V3.19999Z" fill="#1E1E1E"/>
<path d="M9.60078 8.80005C9.15894 8.80005 8.80078 9.15821 8.80078 9.60005V10.4C8.80078 10.8419 9.15894 11.2 9.60078 11.2H10.4008V12.8C10.4008 13.2419 10.7589 13.6 11.2008 13.6H12.0008C12.4426 13.6 12.8008 13.2419 12.8008 12.8V11.2C12.8008 10.7582 12.4426 10.4 12.0008 10.4H11.2008V9.60005C11.2008 9.15821 10.8426 8.80005 10.4008 8.80005H9.60078Z" fill="#1E1E1E"/>
<path d="M9.60078 13.5999C9.15894 13.5999 8.80078 13.958 8.80078 14.3998V15.1998C8.80078 15.6417 9.15894 15.9998 9.60078 15.9998H10.4008C10.8426 15.9998 11.2008 15.6417 11.2008 15.1998V14.3998C11.2008 13.958 10.8426 13.5999 10.4008 13.5999H9.60078Z" fill="#1E1E1E"/>
<path d="M12.7988 9.60005C12.7988 9.15821 13.157 8.80005 13.5988 8.80005H14.3988C14.8407 8.80005 15.1988 9.15821 15.1988 9.60005V10.4C15.1988 10.8419 14.8407 11.2 14.3988 11.2H13.5988C13.157 11.2 12.7988 10.8419 12.7988 10.4V9.60005Z" fill="#1E1E1E"/>
<path d="M13.5988 13.5999C13.157 13.5999 12.7988 13.958 12.7988 14.3998V15.1998C12.7988 15.6417 13.157 15.9998 13.5988 15.9998H14.3988C14.8407 15.9998 15.1988 15.6417 15.1988 15.1998V14.3998C15.1988 13.958 14.8407 13.5999 14.3988 13.5999H13.5988Z" fill="#1E1E1E"/>
</svg>
