<svg width="24" height="25" viewBox="0 0 24 25" fill="none" xmlns="http://www.w3.org/2000/svg">
<path d="M17.0578 20.724C16.7524 20.2209 16.3855 19.8503 15.9572 19.6124L11.2824 17.0251C10.898 16.8146 10.564 16.764 10.2784 16.8735L10.1818 16.9198C9.87645 17.0861 9.72266 17.4061 9.72266 17.8777C9.72266 18.3493 9.87645 18.8356 10.1818 19.3409C10.4872 19.844 10.854 20.2167 11.2824 20.4524L15.9572 23.0399C16.3855 23.2757 16.7524 23.3115 17.0578 23.1452C17.3631 22.9788 17.5147 22.6588 17.5147 22.1873C17.5147 21.7157 17.3631 21.2294 17.0578 20.724ZM11.836 19.6567C11.6866 19.7388 11.5021 19.7177 11.2824 19.5956C11.0605 19.4735 10.876 19.2903 10.7266 19.0419C10.5772 18.7956 10.5025 18.5514 10.5025 18.3072C10.5025 18.063 10.5772 17.903 10.7266 17.8209C10.876 17.7409 11.0605 17.7598 11.2824 17.8819C11.5021 18.004 11.6866 18.1893 11.836 18.4356C11.9854 18.6819 12.06 18.9282 12.06 19.1703C12.06 19.4124 11.9854 19.5746 11.836 19.6567ZM14.1734 20.9494C14.024 21.0315 13.8395 21.0125 13.6198 20.8904C13.3979 20.7661 13.2134 20.583 13.064 20.3367C12.9146 20.0882 12.8399 19.844 12.8399 19.6019C12.8399 19.3598 12.9146 19.1956 13.064 19.1156C13.2134 19.0335 13.3979 19.0546 13.6198 19.1767C13.8395 19.2988 14.024 19.4819 14.1734 19.7282C14.3227 19.9767 14.3974 20.2209 14.3974 20.463C14.3974 20.7051 14.3227 20.8694 14.1734 20.9494ZM16.5108 22.2441C16.3614 22.3241 16.1768 22.3052 15.9572 22.1831C15.7353 22.061 15.5508 21.8757 15.4014 21.6294C15.252 21.3831 15.1773 21.1367 15.1773 20.8946C15.1773 20.6524 15.252 20.4903 15.4014 20.4082C15.5508 20.3261 15.7353 20.3472 15.9572 20.4693C16.1768 20.5914 16.3614 20.7767 16.5108 21.0231C16.6601 21.2694 16.7348 21.5136 16.7348 21.7578C16.7348 22.002 16.6601 22.162 16.5108 22.2441Z" stroke="#545454" stroke-width="0.5"/>
<path d="M12.0595 19.1703C12.0595 19.4124 11.9848 19.5745 11.8354 19.6566C11.686 19.7387 11.5015 19.7177 11.2818 19.5955C11.0599 19.4734 10.8754 19.2903 10.726 19.0419C10.5766 18.7956 10.502 18.5513 10.502 18.3071C10.502 18.0629 10.5766 17.9029 10.726 17.8208C10.8754 17.7408 11.0599 17.7598 11.2818 17.8819C11.5015 18.004 11.686 18.1893 11.8354 18.4356C11.9848 18.6819 12.0595 18.9282 12.0595 19.1703Z" stroke="#545454" stroke-width="0.5"/>
<path d="M14.3974 20.463C14.3974 20.7072 14.3227 20.8693 14.1733 20.9493C14.0239 21.0315 13.8394 21.0125 13.6197 20.8904C13.3978 20.7661 13.2133 20.583 13.0639 20.3367C12.9145 20.0883 12.8398 19.844 12.8398 19.6019C12.8398 19.3598 12.9145 19.1956 13.0639 19.1156C13.2133 19.0335 13.3978 19.0545 13.6197 19.1767C13.8394 19.2988 14.0239 19.4819 14.1733 19.7282C14.3227 19.9767 14.3974 20.2209 14.3974 20.463Z" stroke="#545454" stroke-width="0.5"/>
<path d="M16.7353 21.7575C16.7353 21.9996 16.6606 22.1618 16.5112 22.2439C16.3618 22.3239 16.1773 22.3049 15.9576 22.1828C15.7357 22.0607 15.5512 21.8754 15.4018 21.6291C15.2524 21.3828 15.1777 21.1365 15.1777 20.8944C15.1777 20.6524 15.2524 20.4903 15.4018 20.4082C15.5512 20.326 15.7357 20.3471 15.9576 20.4692C16.1773 20.5913 16.3618 20.7766 16.5112 21.0228C16.6606 21.2691 16.7353 21.5133 16.7353 21.7575Z" stroke="#545454" stroke-width="0.5"/>
<path d="M16.6694 13.7555C16.6145 13.2502 16.52 12.7407 16.3882 12.2292C16.2454 11.6671 16.0565 11.0986 15.8192 10.5302C15.5644 9.91127 15.2568 9.28811 14.8966 8.65864C14.8285 8.54285 14.7604 8.42706 14.6901 8.30916C14.2683 7.61021 13.8179 6.96811 13.339 6.38495C12.2736 5.07969 11.0675 4.05442 9.7231 3.31127C8.95862 2.88811 8.24027 2.606 7.56585 2.46495C6.65638 2.27127 5.83038 2.33442 5.08567 2.65442L4.75615 2.81232C3.39413 3.55758 2.71094 5.00179 2.71094 7.14285C2.71094 8.99969 3.23378 10.9155 4.27945 12.8944C5.32514 14.8713 6.6388 16.4839 8.22489 17.7323C8.19853 17.6039 8.18095 17.4818 8.17436 17.3639C8.16997 17.246 8.16557 17.1281 8.16557 17.0144C8.16557 16.0734 8.46436 15.4313 9.06189 15.0902C9.65942 14.7492 10.3865 14.8165 11.2433 15.2902L12.2077 15.8228L12.3285 15.8902L14.4923 17.0881L15.995 17.9197C16.0631 17.8081 16.1268 17.6923 16.1839 17.5723C16.2849 17.3702 16.3706 17.1513 16.4453 16.9197C16.4805 16.8102 16.5134 16.6986 16.542 16.5828C16.6276 16.246 16.6848 15.8818 16.7133 15.4944C16.7287 15.3028 16.7353 15.105 16.7353 14.9028C16.7353 14.5218 16.7133 14.1386 16.6694 13.7555ZM11.8276 14.5007C11.687 14.5765 11.5245 14.5723 11.3421 14.4839C11.3224 14.4755 11.3026 14.465 11.2829 14.4544C11.0742 14.3407 10.8918 14.1534 10.7358 13.8965L10.593 13.6586L9.1783 11.3197C9.10141 11.1913 9.04212 11.0671 9.00258 10.945C8.96523 10.8228 8.94544 10.705 8.94544 10.5913V7.1639C8.94544 6.92179 9.02015 6.75969 9.16953 6.67758C9.31891 6.59548 9.50342 6.61653 9.7231 6.73863C9.94498 6.86074 10.1295 7.046 10.2789 7.29232C10.4283 7.53863 10.503 7.78285 10.503 8.02706V11.1113L11.8276 13.3007C11.9836 13.5576 12.0605 13.8018 12.0605 14.0292C12.0605 14.2565 11.9836 14.4144 11.8276 14.5007Z" stroke="#545454" stroke-width="0.5"/>
<path d="M12.0604 14.0292C12.0604 14.2587 11.9835 14.4145 11.8275 14.5008C11.6869 14.5766 11.5243 14.5724 11.342 14.4839C11.3222 14.4755 11.3025 14.465 11.2827 14.4545C11.074 14.3408 10.8917 14.1534 10.7357 13.8966L10.5929 13.6587L9.17817 11.3197C9.10129 11.1913 9.04197 11.0671 9.00243 10.945C8.96508 10.8229 8.94531 10.705 8.94531 10.5913V7.16394C8.94531 6.92183 9.02 6.75973 9.16939 6.67762C9.31877 6.59552 9.50328 6.61657 9.72296 6.73868C9.94483 6.86078 10.1294 7.04605 10.2788 7.29236C10.4281 7.53868 10.5028 7.78289 10.5028 8.0271V11.1113L11.8275 13.3008C11.9835 13.5576 12.0604 13.8018 12.0604 14.0292Z" stroke="#545454" stroke-width="0.5"/>
<path d="M21.9092 20.0818C21.9092 20.5534 21.7576 20.8733 21.4522 21.0396L21.3556 21.086L17.0586 23.1449C17.364 22.9786 17.5156 22.6586 17.5156 22.187C17.5156 21.7154 17.364 21.2291 17.0586 20.7239C16.7533 20.2208 16.3864 19.8503 15.958 19.6124L11.2833 17.025C10.8988 16.8145 10.5649 16.7639 10.2793 16.8734L12.3289 15.8903L14.4928 17.0882L15.9954 17.9197L17.2497 17.3197L17.889 17.0124L18.7304 16.6103L20.3516 17.5071C20.78 17.745 21.1468 18.1155 21.4522 18.6187C21.7576 19.1239 21.9092 19.6124 21.9092 20.0818Z" stroke="#545454" stroke-width="0.5"/>
<path d="M12.2081 15.8229L8.22533 17.7324C8.19897 17.604 8.18141 17.4819 8.17482 17.364C8.17043 17.2461 8.16602 17.1282 8.16602 17.0145C8.16602 16.0734 8.4648 15.4313 9.06233 15.0903C9.65986 14.7492 10.387 14.8166 11.2437 15.2903L12.2081 15.8229Z" stroke="#545454" stroke-width="0.5"/>
<path d="M21.1291 12.7977C21.1291 13.4103 21.0654 13.9724 20.9358 14.4777C20.8062 14.985 20.6239 15.4293 20.3888 15.8145L18.7302 16.6103L17.8889 17.0124L17.2496 17.3177L15.9952 17.9198C16.0633 17.8082 16.127 17.6924 16.1842 17.5724C16.2852 17.3703 16.3709 17.1514 16.4456 16.9198C16.4807 16.8103 16.5137 16.6987 16.5422 16.5829C16.6279 16.2461 16.685 15.8819 16.7136 15.4945C16.729 15.3029 16.7355 15.1051 16.7355 14.9029C16.7355 14.5219 16.7136 14.1387 16.6696 13.7556C16.6147 13.2503 16.5203 12.7408 16.3885 12.2293C16.2457 11.6672 16.0567 11.0987 15.8195 10.5303C15.5647 9.91135 15.2571 9.28821 14.8968 8.65874C14.8287 8.54295 14.7607 8.42716 14.6904 8.30926C14.2686 7.61031 13.8182 6.96819 13.3393 6.38503C12.2739 5.07977 11.0678 4.05452 9.72337 3.31137C8.95889 2.88821 8.24056 2.6061 7.56614 2.46505C6.65667 2.27137 5.83065 2.33452 5.08594 2.65452L9.15001 0.707152C10.5142 -0.0381108 12.1706 0.128203 14.117 1.2061C16.0655 2.284 17.7219 3.94926 19.0839 6.204C20.4482 8.45663 21.1291 10.6545 21.1291 12.7977Z" stroke="#545454" stroke-width="0.5"/>
</svg>
