<svg width="16" height="16" viewBox="0 0 16 16" fill="none" xmlns="http://www.w3.org/2000/svg">
<path d="M6 11.7239L6 4.27586C6.00003 4.14402 6.03914 4.01516 6.1124 3.90555C6.18565 3.79594 6.28976 3.71052 6.41156 3.66007C6.53336 3.60962 6.66738 3.59642 6.79669 3.62213C6.92599 3.64785 7.04476 3.71132 7.138 3.80452L10.862 7.52852C10.987 7.65354 11.0572 7.82308 11.0572 7.99986C11.0572 8.17663 10.987 8.34617 10.862 8.47119L7.138 12.1952C7.04476 12.2884 6.92599 12.3519 6.79669 12.3776C6.66738 12.4033 6.53336 12.3901 6.41156 12.3396C6.28976 12.2892 6.18566 12.2038 6.1124 12.0942C6.03914 11.9846 6.00003 11.8557 6 11.7239Z" fill="#363636"/>
</svg>
