<svg width="20" height="20" viewBox="0 0 20 20" fill="none" xmlns="http://www.w3.org/2000/svg">
<path d="M10.834 7.5H5.83398" stroke="#1E1E1E" stroke-width="1.25" stroke-linecap="round" stroke-linejoin="round"/>
<path d="M18.3329 9.14159V10.8583C18.3329 11.3166 17.9662 11.6916 17.4995 11.7083H15.8662C14.9662 11.7083 14.1412 11.0499 14.0662 10.1499C14.0162 9.62494 14.2162 9.13327 14.5662 8.79161C14.8745 8.47494 15.2995 8.29163 15.7662 8.29163H17.4995C17.9662 8.30829 18.3329 8.68326 18.3329 9.14159Z" stroke="#1E1E1E" stroke-width="1.25" stroke-linecap="round" stroke-linejoin="round"/>
<path d="M14.566 8.79168C14.216 9.13334 14.016 9.62501 14.066 10.15C14.141 11.05 14.966 11.7083 15.866 11.7083H17.4993V12.9167C17.4993 15.4167 15.8327 17.0834 13.3327 17.0834H5.83268C3.33268 17.0834 1.66602 15.4167 1.66602 12.9167V7.08335C1.66602 4.81669 3.03268 3.23335 5.15768 2.96668C5.37435 2.93335 5.59935 2.91669 5.83268 2.91669H13.3327C13.5493 2.91669 13.7577 2.92501 13.9577 2.95834C16.1077 3.20834 17.4993 4.80002 17.4993 7.08335V8.2917H15.766C15.2993 8.2917 14.8743 8.47501 14.566 8.79168Z" stroke="#1E1E1E" stroke-width="1.25" stroke-linecap="round" stroke-linejoin="round"/>
</svg>
