<svg width="105" height="98" viewBox="0 0 105 98" fill="none" xmlns="http://www.w3.org/2000/svg">
<path d="M66.1301 30.0498C66.1301 34.6398 64.7101 37.7498 61.8601 39.3698L61.1401 39.7298L53.4001 43.5998L41.8601 49.3698C44.7101 47.7498 46.1301 44.6398 46.1301 40.0498C46.1301 39.9298 46.1301 39.8198 46.1201 39.6998C46.0901 37.4098 45.7 35.0798 44.95 32.7098C44.25 30.4498 43.2201 28.1498 41.8601 25.8098C40.7401 23.8798 39.54 22.1698 38.25 20.6498C36.24 18.2698 34.0201 16.3898 31.5901 14.9798C27.9401 12.8698 24.7701 12.3998 22.0801 13.5798L41.3301 3.94982C44.1701 2.32982 47.6001 2.66982 51.5901 4.97982C55.5901 7.28982 59.0101 10.8998 61.8601 15.8098C64.7101 20.7198 66.1301 25.4698 66.1301 30.0498Z" stroke="#676767"/>
<path d="M71.6503 58.8703C71.6503 58.8703 71.6003 58.8103 71.5703 58.7803V58.9103M71.6503 58.8703C71.7203 58.9303 71.7803 58.9903 71.8303 59.0603L71.5703 58.9103M71.6503 58.8703L71.5703 58.9103" stroke="#676767"/>
<path d="M60.6694 86.8198V90.1498C60.6694 92.4498 59.9595 93.9998 58.5295 94.8098C57.1095 95.6198 55.3996 95.4498 53.3996 94.2998L9.78955 69.1198C7.78955 67.9598 6.07966 66.1598 4.64966 63.6998C3.22966 61.2498 2.51953 58.8698 2.51953 56.5798V53.2398C2.51953 50.8798 3.04962 49.0098 4.10962 47.6398C4.66962 46.9198 5.3296 46.3798 6.0896 46.0398C6.7596 45.7298 7.50959 45.5598 8.32959 45.5498C12.0896 45.5598 15.9095 46.1498 19.7795 47.3098C20.7295 47.5998 21.6896 47.9198 22.6496 48.2698C25.5996 49.3598 28.5796 50.7798 31.5896 52.5098C35.5896 54.8198 39.5294 57.6298 43.4094 60.9498C47.2794 64.2598 51.0996 68.0798 54.8496 72.4098C55.4296 73.0798 55.9695 73.7898 56.4595 74.5198C57.4995 76.0198 58.3696 77.6398 59.0796 79.3798C60.1396 81.9698 60.6694 84.4498 60.6694 86.8198Z" stroke="#676767"/>
<path d="M91.4192 66.7598C91.2592 67.3198 90.9593 67.7198 90.5293 67.9598L90.3094 68.0698L80.2493 73.0998L70.5293 77.9598C71.2193 77.5698 71.5694 76.7798 71.5694 75.5998V67.2498L78.8394 71.4498C79.2394 71.6798 79.6093 71.8398 79.9493 71.9098C80.5093 72.0498 80.9992 71.9898 81.4292 71.7498L88.7993 68.0598H88.8094L91.4192 66.7598Z" stroke="#676767"/>
<path d="M91.5705 40.5702V48.9102L83.8205 52.7802L71.6506 58.8702C71.6506 58.8702 71.6005 58.8102 71.5705 58.7802V50.5702C71.5705 49.3902 71.2204 48.2002 70.5304 47.0002C69.8304 45.8002 68.9704 44.9002 67.9404 44.3002C67.6304 44.1302 67.3506 44.0002 67.0806 43.9002H67.0705C66.5005 43.7202 66.0005 43.7202 65.5605 43.9102L85.3505 34.0102C86.0405 33.6102 86.9104 33.7102 87.9404 34.3002C88.9704 34.9002 89.8304 35.8002 90.5304 37.0002C91.2204 38.2002 91.5705 39.3902 91.5705 40.5702Z" stroke="#676767"/>
<path d="M46.1305 40.0497C46.1305 44.6397 44.7105 47.7497 41.8605 49.3697C39.0105 50.9897 35.5905 50.6497 31.5905 48.3397C28.3205 46.4597 25.4303 43.6897 22.9303 40.0497C22.5203 39.4597 22.1204 38.8397 21.7404 38.1997C21.6004 37.9797 21.4605 37.7497 21.3305 37.5197C18.4805 32.5997 17.0605 27.8597 17.0605 23.2697C17.0605 18.6797 18.4805 15.5797 21.3305 13.9497L22.0805 13.5797C24.7705 12.3997 27.9405 12.8697 31.5905 14.9797C34.0205 16.3897 36.2404 18.2697 38.2504 20.6497C39.5404 22.1697 40.7405 23.8797 41.8605 25.8097C43.2205 28.1497 44.2504 30.4497 44.9504 32.7097C45.7004 35.0797 46.0905 37.4097 46.1205 39.6997C46.1305 39.8197 46.1305 39.9297 46.1305 40.0497Z" stroke="#676767"/>
<path d="M64.4503 45.2197C64.3503 45.5497 64.3003 45.9397 64.3003 46.3797V54.7197L57.0303 50.5197C56.1003 49.9897 55.3104 49.8497 54.6504 50.1197L59.4102 47.7297L64.4503 45.2197Z" stroke="#676767"/>
<path d="M82.4803 69.3804C82.4803 70.5604 82.1302 71.3504 81.4302 71.7504C81.0002 71.9904 80.5103 72.0504 79.9503 71.9104C79.6103 71.8404 79.2404 71.6804 78.8404 71.4504L71.5704 67.2504V75.6004C71.5704 76.7804 71.2203 77.5704 70.5303 77.9604C69.8303 78.3604 68.9702 78.2604 67.9402 77.6704C66.9102 77.0704 66.0404 76.1704 65.3504 74.9704C64.6504 73.7704 64.3003 72.5804 64.3003 71.4004V63.0604L57.0303 58.8604C56.0003 58.2704 55.1402 57.3704 54.4402 56.1704C53.7502 54.9704 53.4004 53.7704 53.4004 52.5904C53.4004 51.4104 53.7502 50.6204 54.4402 50.2204L54.6504 50.1204C55.3104 49.8504 56.1003 49.9904 57.0303 50.5204L64.3003 54.7204V46.3804C64.3003 45.9404 64.3503 45.5504 64.4503 45.2204C64.6103 44.6504 64.9104 44.2504 65.3504 44.0104L65.5604 43.9104C66.0004 43.7204 66.5004 43.7204 67.0704 43.9004H67.0804C67.3504 44.0004 67.6302 44.1304 67.9402 44.3004C68.9702 44.9004 69.8303 45.8004 70.5303 47.0004C71.2203 48.2004 71.5704 49.3904 71.5704 50.5704V58.9104L71.8304 59.0604L78.8404 63.1104C79.8704 63.7004 80.7302 64.6004 81.4302 65.8004C82.1302 67.0104 82.4803 68.2004 82.4803 69.3804Z" stroke="#676767"/>
<path d="M71.6503 58.8701L71.5703 58.9101" stroke="#676767"/>
<path d="M102.48 59.3802C102.48 60.5602 102.13 61.3502 101.43 61.7502L91.4202 66.7502L88.8104 68.0602H88.8003L81.4302 71.7502C82.1302 71.3502 82.4803 70.5602 82.4803 69.3802C82.4803 68.2002 82.1302 67.0102 81.4302 65.8002C80.7302 64.6002 79.8704 63.7002 78.8404 63.1102L71.8304 59.0602C71.7804 58.9902 71.7204 58.9302 71.6504 58.8702L83.8204 52.7802L91.5704 48.9102L98.8404 53.1102C99.8704 53.7002 100.73 54.6002 101.43 55.8002C102.13 57.0102 102.48 58.2002 102.48 59.3802Z" stroke="#676767"/>
<path d="M80.6697 76.8202V80.1502C80.6697 82.4502 79.9598 84.0002 78.5298 84.8102L78.0799 85.0302L58.5298 94.8102C59.9598 94.0002 60.6697 92.4502 60.6697 90.1502V86.8202C60.6697 84.4502 60.1399 81.9702 59.0799 79.3802C58.3699 77.6402 57.4998 76.0202 56.4598 74.5202C55.9698 73.7902 55.4299 73.0802 54.8499 72.4102C51.0999 68.0802 47.2797 64.2602 43.4097 60.9502C39.5297 57.6302 35.5899 54.8202 31.5899 52.5102C28.5799 50.7802 25.5999 49.3602 22.6499 48.2702C21.6899 47.9202 20.7298 47.6002 19.7798 47.3102C15.9098 46.1502 12.0899 45.5602 8.32983 45.5502C7.50983 45.5602 6.75984 45.7302 6.08984 46.0402L21.7398 38.2002C22.1198 38.8402 22.5197 39.4602 22.9297 40.0502C25.4297 43.6902 28.3199 46.4602 31.5899 48.3402C35.5899 50.6502 39.0099 50.9902 41.8599 49.3702L53.3999 43.6002C55.4199 44.8402 57.4197 46.2202 59.4097 47.7302L54.6499 50.1202L54.4397 50.2202C53.7497 50.6202 53.3999 51.4102 53.3999 52.5902C53.3999 53.7702 53.7497 54.9702 54.4397 56.1702C55.1397 57.3702 55.9998 58.2702 57.0298 58.8602L64.2998 63.0602V71.4002C64.2998 72.5802 64.6499 73.7702 65.3499 74.9702C66.0399 76.1702 66.9097 77.0702 67.9397 77.6702C68.9697 78.2602 69.8298 78.3602 70.5298 77.9602L80.2498 73.1002C80.5298 74.3702 80.6697 75.6102 80.6697 76.8202Z" stroke="#676767"/>
</svg>
