<svg width="20" height="20" viewBox="0 0 20 20" fill="none" xmlns="http://www.w3.org/2000/svg">
<path d="M12.0481 12.6425L10.801 12.9467L12.3456 19.6341L8.24303 13.6812L4.13883 14.8963L5.68505 9.99378L1.59766 4.27949L6.64808 7.19378L7.12875 5.63243L7.5943 4.11983L8.24303 2.01562L8.89177 4.86773L9.83799 9.03579L14.233 11.5753L14.8867 11.9518L14.3506 12.0829L12.0481 12.6425Z" fill="#FEF2FF" stroke="#F14CFF" stroke-width="0.336134" stroke-linecap="round" stroke-linejoin="round"/>
<path d="M18.2479 10.2714L14.8866 11.9521L14.2328 11.5756L9.83789 9.03614L13.1992 7.35547L18.2479 10.2714Z" fill="#FEF2FF" stroke="#F14CFF" stroke-width="0.336134" stroke-linecap="round" stroke-linejoin="round"/>
<path d="M7.5943 4.12062L7.12875 5.63322L6.64808 7.19457L1.59766 4.28028L4.959 2.59961L7.5943 4.12062Z" fill="#FEF2FF" stroke="#F14CFF" stroke-width="0.336134" stroke-linecap="round" stroke-linejoin="round"/>
<path d="M15.7047 17.9546L12.3434 19.6352L10.7988 12.9478L12.0459 12.6436L14.3484 12.084L15.7047 17.9546Z" fill="#FEF2FF" stroke="#F14CFF" stroke-width="0.336134" stroke-linecap="round" stroke-linejoin="round"/>
<path d="M13.1985 7.35611L9.83715 9.03678L8.89093 4.86871L8.24219 2.01661L11.6035 0.335938L13.1985 7.35611Z" fill="#FEF2FF" stroke="#F14CFF" stroke-width="0.336134" stroke-linecap="round" stroke-linejoin="round"/>
</svg>
