<svg width="32" height="32" viewBox="0 0 32 32" fill="none" xmlns="http://www.w3.org/2000/svg">
<path d="M27.7736 25.2884C27.7736 26.7322 27.3337 27.7089 26.454 28.2209L26.2154 28.3401L21.4836 30.706C22.3634 30.1941 22.8033 29.2174 22.8033 27.7735C22.8033 27.7213 22.8033 27.6691 22.8033 27.617C22.7734 26.2228 22.3336 24.7889 21.4861 23.3201C20.7008 21.9607 19.7689 20.917 18.6804 20.1913C18.5487 20.1018 18.4145 20.0198 18.2778 19.9403C17.7435 19.6297 17.2414 19.4308 16.7767 19.3414C16.1977 19.2271 15.6734 19.2792 15.2012 19.5004L16.7717 18.7151L20.0074 17.0973C20.0298 17.0849 20.0522 17.0724 20.0746 17.0625V19.2295C20.4101 19.5452 20.7282 19.8757 21.0314 20.2261C21.3346 20.574 21.6228 20.9394 21.8937 21.3246L22.771 20.8872L23.6805 20.4324L25.5544 19.493C25.8749 19.9006 26.1756 20.3479 26.4565 20.835C27.3362 22.3584 27.7761 23.8445 27.7761 25.2884H27.7736Z" fill="#FEF2FF" stroke="#F14CFF" stroke-width="0.248517" stroke-linecap="round" stroke-linejoin="round"/>
<path d="M22.7968 27.6175C22.767 26.2234 22.3271 24.7895 21.4797 23.3207C20.6944 21.9613 19.7625 20.9176 18.674 20.1919C18.5423 20.1025 18.4081 20.0204 18.2714 19.9409C17.7371 19.6302 17.235 19.4314 16.7703 19.342C16.1913 19.2277 15.6669 19.2798 15.1948 19.501L15.0307 19.5831C14.6355 19.8042 14.3299 20.1199 14.1087 20.5349C13.8378 21.0493 13.7012 21.7104 13.7012 22.523C13.7012 23.0673 13.7608 23.614 13.8851 24.1657C14.0913 25.0976 14.474 26.0394 15.0307 26.9962C15.9179 28.5172 16.999 29.6454 18.2714 30.381C19.5314 31.1067 20.6 31.2161 21.4797 30.7066C22.3594 30.1946 22.7993 29.218 22.7993 27.7741C22.7993 27.7219 22.7993 27.6697 22.7993 27.6175H22.7968ZM19.7724 28.5072L17.7942 25.0951V21.7526L18.7038 22.2795V25.2019L20.4111 28.1444L19.7724 28.5072Z" fill="#FEF2FF" stroke="#F14CFF" stroke-width="0.248517" stroke-linecap="round" stroke-linejoin="round"/>
<path d="M20.4138 28.1418L19.7751 28.5046L17.7969 25.0925V21.75L18.7064 22.2769V25.1993L20.4138 28.1418Z" fill="#FEF2FF" stroke="#F14CFF" stroke-width="0.248517" stroke-linecap="round" stroke-linejoin="round"/>
<path d="M9.39252 10.6312L8.66687 10.994L5.51562 12.5696V8.39453L8.66687 10.2137L9.39252 10.6312Z" fill="#FEF2FF" stroke="#F14CFF" stroke-width="0.248517" stroke-linecap="round" stroke-linejoin="round"/>
<path d="M17.5786 15.3616L13.7043 17.3L8.66687 14.3923L5.51562 12.5732L8.66687 10.9976L9.39252 10.6348L17.5786 15.3616Z" fill="#FEF2FF" stroke="#F14CFF" stroke-width="0.248517" stroke-linecap="round" stroke-linejoin="round"/>
<path d="M21.8912 13.6767V21.3236C21.6203 20.9384 21.332 20.573 21.0288 20.2251C20.7256 19.8747 20.4075 19.5442 20.072 19.2285V16.8005L17.8254 15.5033L17.5794 15.3617L9.39326 10.6348L8.66761 10.2173L5.51636 8.39818V12.5733L8.66761 14.3924L13.7051 17.3001C13.1136 17.6206 12.6463 18.1301 12.3059 18.8284C12.2239 18.9974 12.1518 19.1764 12.0897 19.3653C11.8934 19.9542 11.7939 20.6402 11.7939 21.418C11.7939 21.9747 11.8461 22.5487 11.953 23.1402C12.0598 23.7317 12.2114 24.3207 12.4077 24.9047L3.69727 19.8747V3.17188L8.66761 6.04227L10.4867 7.09099L21.8912 13.6767Z" fill="#FEF2FF" stroke="#F14CFF" stroke-width="0.248517" stroke-linecap="round" stroke-linejoin="round"/>
<path d="M26.861 11.5488V18.8354L25.5513 19.489L23.6775 20.4283L22.7679 20.8831L21.8906 21.3205V13.6737L23.0661 13.1717L26.861 11.5488Z" fill="#FEF2FF" stroke="#F14CFF" stroke-width="0.248517" stroke-linecap="round" stroke-linejoin="round"/>
<path d="M26.8615 11.1884V11.5487L23.0667 13.1716L21.8912 13.6736L10.4867 7.08787L8.66761 6.03915L3.69727 3.16876L8.66761 0.683594L26.8615 11.1884Z" fill="#FEF2FF" stroke="#F14CFF" stroke-width="0.248517" stroke-linecap="round" stroke-linejoin="round"/>
<path d="M17.8245 15.501C17.6132 15.7396 17.4318 16.0204 17.2753 16.341C16.9597 16.9896 16.7882 17.7799 16.7683 18.7119L15.1977 19.4972L15.0336 19.5792C14.6385 19.8004 14.3328 20.116 14.1117 20.531C13.8408 21.0454 13.7041 21.7065 13.7041 22.5191C13.7041 23.0634 13.7638 23.6101 13.888 24.1618L12.4068 24.9023C12.2105 24.3184 12.0589 23.7294 11.952 23.1379C11.8452 22.5465 11.793 21.9724 11.793 21.4157C11.793 20.6379 11.8924 19.952 12.0888 19.363C12.1509 19.1741 12.2229 18.9952 12.3049 18.8262C12.6454 18.1279 13.1126 17.6184 13.7041 17.2978L17.5784 15.3594L17.8245 15.501Z" fill="#FEF2FF" stroke="#F14CFF" stroke-width="0.248517" stroke-linecap="round" stroke-linejoin="round"/>
</svg>
