<svg width="200" height="200" viewBox="0 0 200 200" fill="none" xmlns="http://www.w3.org/2000/svg">
<rect width="200" height="200" fill="#5EA1FF"/>
<g clip-path="url(#clip0_1788_65412)">
<path d="M148 148.627C148 154.899 142.925 160 136.686 160H63.3078C57.0746 160 52 154.899 52 148.627C52 122.008 73.5346 100.353 100 100.353C126.465 100.353 148 122.008 148 148.627ZM100 40C86.2282 40 75.0268 51.2684 75.0268 65.1161C75.0268 78.9667 86.2282 90.2323 100 90.2323C113.772 90.2323 124.973 78.9667 124.973 65.1161C124.973 51.2684 113.772 40 100 40Z" fill="#004AB1"/>
</g>
<defs>
<clipPath id="clip0_1788_65412">
<rect width="120" height="120" fill="white" transform="translate(40 40.1282)"/>
</clipPath>
</defs>
</svg>
