<svg width="200" height="200" viewBox="0 0 200 200" fill="none" xmlns="http://www.w3.org/2000/svg">
<rect width="200" height="200" fill="#FF6EE9"/>
<g clip-path="url(#clip0_1788_65409)">
<path d="M148 148.499C148 154.771 142.925 159.872 136.686 159.872H63.3078C57.0746 159.872 52 154.771 52 148.499C52 121.88 73.5346 100.225 100 100.225C126.465 100.225 148 121.88 148 148.499ZM100 39.8718C86.2282 39.8718 75.0268 51.1403 75.0268 64.988C75.0268 78.8386 86.2282 90.1041 100 90.1041C113.772 90.1041 124.973 78.8386 124.973 64.988C124.973 51.1403 113.772 39.8718 100 39.8718Z" fill="#C32DAC"/>
</g>
<defs>
<clipPath id="clip0_1788_65409">
<rect width="120" height="120" fill="white" transform="translate(40 40)"/>
</clipPath>
</defs>
</svg>
