<svg width="660" height="274" viewBox="0 0 660 274" fill="none" xmlns="http://www.w3.org/2000/svg">
<path d="M605.662 273.334V201.315H456.992V108.238H494.054V72.0186H531.117V36.2199H568.6V0H659.571V273.334H605.662ZM510.48 143.616H605.662V57.6991H585.025V93.4978H547.542V129.297H510.48V143.616Z" fill="#6D2EFF"/>
<path d="M265.558 273.334V237.535H228.496V36.2199H265.558V0H393.591V36.2199H431.075V237.535H393.591V273.334H265.558ZM281.984 216.056H377.166V57.6991H281.984V216.056Z" fill="#6D2EFF"/>
<path d="M148.67 273.334V201.315H0V108.238H37.0622V72.0186H74.1244V36.2199H111.608V0H202.579V273.334H148.67ZM53.4875 143.616H148.67V57.6991H128.033V93.4978H90.5497V129.297H53.4875V143.616Z" fill="#6D2EFF"/>
</svg>
