<svg width="306" height="83" viewBox="0 0 306 83" fill="none" xmlns="http://www.w3.org/2000/svg">
<path d="M12.7055 37.9492H1.96329L8.66251 0H19.3852L18.5258 5H13.6234L8.68204 32.9883H13.5648L12.7055 37.9492Z" fill="#FF7CEB"/>
<path d="M39.1336 32.2656H33.782L23.9188 16.3477L21.1063 32.2656H14.9149L19.6024 5.70312H24.993L34.8367 21.582L37.6492 5.70312H43.8211L39.1336 32.2656ZM43.4524 20.8594C43.4524 19.4271 43.6672 18.0404 44.0969 16.6992C44.5396 15.3581 45.1451 14.1016 45.9133 12.9297C46.6945 11.7578 47.619 10.6901 48.6867 9.72656C49.7544 8.75 50.9198 7.91667 52.1828 7.22656C53.4458 6.53646 54.787 6.0026 56.2063 5.625C57.6255 5.23438 59.0774 5.03906 60.5617 5.03906C62.3586 5.03906 64.0122 5.35156 65.5227 5.97656C67.0331 6.58854 68.3352 7.4349 69.4289 8.51562C70.5227 9.58333 71.3755 10.8464 71.9875 12.3047C72.5995 13.763 72.9055 15.332 72.9055 17.0117C72.9055 18.444 72.6841 19.8307 72.2414 21.1719C71.8117 22.513 71.2063 23.776 70.425 24.9609C69.6438 26.1328 68.7193 27.207 67.6516 28.1836C66.5839 29.1471 65.412 29.9805 64.1359 30.6836C62.8729 31.3737 61.5318 31.9076 60.1125 32.2852C58.6932 32.6758 57.2479 32.8711 55.7766 32.8711C53.9797 32.8711 52.326 32.5651 50.8156 31.9531C49.3052 31.3281 48.0031 30.4753 46.9094 29.3945C45.8287 28.3138 44.9823 27.0443 44.3703 25.5859C43.7583 24.1146 43.4524 22.5391 43.4524 20.8594ZM49.6828 20.3125C49.6828 21.3542 49.8521 22.3177 50.1906 23.2031C50.5292 24.0755 51.0044 24.8372 51.6164 25.4883C52.2414 26.1393 52.9771 26.6471 53.8234 27.0117C54.6828 27.3763 55.6203 27.5586 56.6359 27.5586C57.5083 27.5586 58.3612 27.4414 59.1945 27.207C60.0279 26.9727 60.8156 26.6406 61.5578 26.2109C62.3 25.7812 62.9836 25.2669 63.6086 24.668C64.2336 24.056 64.774 23.3854 65.2297 22.6562C65.6854 21.9141 66.037 21.1198 66.2844 20.2734C66.5448 19.4271 66.675 18.5417 66.675 17.6172C66.675 16.5755 66.4992 15.612 66.1477 14.7266C65.8091 13.8411 65.3339 13.0794 64.7219 12.4414C64.1099 11.7904 63.3742 11.2826 62.5149 10.918C61.6555 10.5534 60.7115 10.3711 59.6828 10.3711C58.3938 10.3711 57.1503 10.6315 55.9524 11.1523C54.7544 11.6602 53.6867 12.3633 52.7492 13.2617C51.8247 14.1471 51.0826 15.1953 50.5227 16.4062C49.9628 17.6172 49.6828 18.9193 49.6828 20.3125ZM97.6149 23.3984H97.693L106.306 5.68359H113.005L99.3141 32.2656H93.357L91.1305 16.0547L83.3961 32.2656H77.4391L73.1227 5.68359H79.5094L81.8531 23.3984H81.9508L89.6266 5.80078H96.15L97.6149 23.3984ZM133.889 28.0469H122.776L120.334 32.2656H113.791L129.358 5.68359H135.178L141.37 32.2656H134.846L133.889 28.0469ZM125.823 22.7734H132.698L130.901 14.7461L130.862 13.8867H130.803L130.471 14.7461L125.823 22.7734ZM160.493 5.68359H167.173L151.489 32.2656H145.903L139.575 5.68359H145.962L149.966 23.9258H150.044L160.493 5.68359ZM176.472 28.0469H165.359L162.917 32.2656H156.374L171.941 5.68359H177.761L183.952 32.2656H177.429L176.472 28.0469ZM168.405 22.7734H175.28L173.484 14.7461L173.445 13.8867H173.386L173.054 14.7461L168.405 22.7734ZM189.521 5.70312H195.713L191.025 32.2656H184.834L189.521 5.70312ZM198.84 5.70312H205.031L201.262 26.9531H212.395L211.477 32.2656H194.152L198.84 5.70312ZM231.303 28.0469H220.19L217.748 32.2656H211.205L226.772 5.68359H232.592L238.784 32.2656H232.26L231.303 28.0469ZM223.237 22.7734H230.112L228.315 14.7461L228.276 13.8867H228.217L227.885 14.7461L223.237 22.7734ZM248.63 16.3477H253.903C254.268 16.3477 254.639 16.2695 255.016 16.1133C255.394 15.957 255.733 15.7422 256.032 15.4688C256.345 15.1823 256.598 14.8438 256.794 14.4531C256.989 14.0625 257.087 13.6328 257.087 13.1641C257.087 12.8255 257.028 12.513 256.911 12.2266C256.794 11.9271 256.638 11.6732 256.442 11.4648C256.247 11.2565 256.013 11.0938 255.739 10.9766C255.479 10.8594 255.199 10.8008 254.899 10.8008H249.626L248.63 16.3477ZM252.848 27.168C253.213 27.168 253.617 27.0964 254.059 26.9531C254.502 26.8099 254.912 26.5885 255.29 26.2891C255.667 25.9896 255.986 25.6185 256.247 25.1758C256.507 24.7201 256.638 24.1862 256.638 23.5742C256.638 22.793 256.384 22.1745 255.876 21.7188C255.368 21.25 254.723 21.0156 253.942 21.0156H247.809L246.716 27.168H252.848ZM239.665 32.2656L244.352 5.70312H256.169C257.315 5.70312 258.343 5.83984 259.255 6.11328C260.179 6.38672 260.96 6.79036 261.598 7.32422C262.236 7.84505 262.725 8.48958 263.063 9.25781C263.402 10.013 263.571 10.8789 263.571 11.8555C263.571 12.6237 263.447 13.3529 263.2 14.043C262.953 14.7201 262.627 15.332 262.223 15.8789C261.82 16.4258 261.364 16.901 260.856 17.3047C260.348 17.6953 259.834 17.9883 259.313 18.1836C259.834 18.3789 260.322 18.6523 260.778 19.0039C261.234 19.3555 261.624 19.7656 261.95 20.2344C262.289 20.6901 262.549 21.1979 262.731 21.7578C262.927 22.3047 263.024 22.8906 263.024 23.5156C263.024 24.5312 262.881 25.4557 262.595 26.2891C262.308 27.1094 261.911 27.8451 261.403 28.4961C260.908 29.1471 260.322 29.7135 259.645 30.1953C258.981 30.6641 258.259 31.0547 257.477 31.3672C256.709 31.6667 255.908 31.8945 255.075 32.0508C254.242 32.194 253.415 32.2656 252.595 32.2656H239.665ZM268.007 5.70312H274.198L270.429 26.9531H281.562L280.644 32.2656H263.32L268.007 5.70312ZM287.052 5.70312H305.763L304.826 11.0352H292.306L291.33 16.4648H302.072L301.154 21.7773H290.392L289.474 26.9531H302.189L301.252 32.2656H282.365L287.052 5.70312ZM31.957 60.8594C31.957 59.4271 32.1719 58.0404 32.6016 56.6992C33.0443 55.3581 33.6497 54.1016 34.418 52.9297C35.1992 51.7578 36.1237 50.6901 37.1914 49.7266C38.2591 48.75 39.4245 47.9167 40.6875 47.2266C41.9505 46.5365 43.2917 46.0026 44.7109 45.625C46.1302 45.2344 47.582 45.0391 49.0664 45.0391C50.8633 45.0391 52.5169 45.3516 54.0273 45.9766C55.5378 46.5885 56.8398 47.4349 57.9336 48.5156C59.0273 49.5833 59.8802 50.8464 60.4922 52.3047C61.1042 53.763 61.4102 55.332 61.4102 57.0117C61.4102 58.444 61.1888 59.8307 60.7461 61.1719C60.3164 62.513 59.7109 63.776 58.9297 64.9609C58.1484 66.1328 57.224 67.207 56.1562 68.1836C55.0885 69.1471 53.9167 69.9805 52.6406 70.6836C51.3776 71.3737 50.0365 71.9076 48.6172 72.2852C47.1979 72.6758 45.7526 72.8711 44.2812 72.8711C42.4844 72.8711 40.8307 72.5651 39.3203 71.9531C37.8099 71.3281 36.5078 70.4753 35.4141 69.3945C34.3333 68.3138 33.487 67.0443 32.875 65.5859C32.263 64.1146 31.957 62.5391 31.957 60.8594ZM38.1875 60.3125C38.1875 61.3542 38.3568 62.3177 38.6953 63.2031C39.0339 64.0755 39.5091 64.8372 40.1211 65.4883C40.7461 66.1393 41.4818 66.6471 42.3281 67.0117C43.1875 67.3763 44.125 67.5586 45.1406 67.5586C46.013 67.5586 46.8659 67.4414 47.6992 67.207C48.5326 66.9727 49.3203 66.6406 50.0625 66.2109C50.8047 65.7812 51.4883 65.2669 52.1133 64.668C52.7383 64.056 53.2786 63.3854 53.7344 62.6562C54.1901 61.9141 54.5417 61.1198 54.7891 60.2734C55.0495 59.4271 55.1797 58.5417 55.1797 57.6172C55.1797 56.5755 55.0039 55.612 54.6523 54.7266C54.3138 53.8411 53.8385 53.0794 53.2266 52.4414C52.6146 51.7904 51.8789 51.2826 51.0195 50.918C50.1602 50.5534 49.2161 50.3711 48.1875 50.3711C46.8984 50.3711 45.6549 50.6315 44.457 51.1523C43.2591 51.6602 42.1914 52.3633 41.2539 53.2617C40.3294 54.1471 39.5872 55.1953 39.0273 56.4062C38.4674 57.6172 38.1875 58.9193 38.1875 60.3125ZM85.2602 72.2656H79.9086L70.0453 56.3477L67.2328 72.2656H61.0414L65.7289 45.7031H71.1195L80.9633 61.582L83.7758 45.7031H89.9477L85.2602 72.2656ZM106.964 66.9531C108.514 66.9531 109.887 66.7318 111.085 66.2891C112.296 65.8464 113.312 65.2148 114.132 64.3945C114.965 63.5612 115.597 62.5521 116.027 61.3672C116.456 60.1823 116.671 58.8542 116.671 57.3828C116.671 56.4062 116.528 55.5273 116.241 54.7461C115.968 53.9648 115.545 53.3008 114.972 52.7539C114.412 52.194 113.702 51.7643 112.843 51.4648C111.984 51.1654 110.968 51.0156 109.796 51.0156H105.284L102.472 66.9531H106.964ZM100.03 45.7031H110.831C112.615 45.7031 114.249 45.944 115.734 46.4258C117.218 46.8945 118.494 47.5911 119.562 48.5156C120.629 49.4401 121.456 50.5859 122.042 51.9531C122.641 53.3073 122.941 54.8698 122.941 56.6406C122.941 58.8802 122.557 60.957 121.788 62.8711C121.02 64.7721 119.913 66.4193 118.468 67.8125C117.036 69.2057 115.284 70.2995 113.214 71.0938C111.144 71.875 108.807 72.2656 106.202 72.2656H95.343L100.03 45.7031ZM127.318 45.7031H146.029L145.091 51.0352H132.572L131.595 56.4648H142.338L141.42 61.7773H130.658L129.74 66.9531H142.455L141.517 72.2656H122.63L127.318 45.7031ZM149.723 64.0039C149.527 65.0977 149.82 65.9701 150.602 66.6211C151.383 67.2721 152.594 67.5977 154.234 67.5977C156.148 67.5977 157.548 67.3047 158.434 66.7188C159.319 66.1198 159.762 65.2865 159.762 64.2188C159.762 63.6849 159.618 63.2552 159.332 62.9297C159.059 62.5911 158.661 62.3047 158.141 62.0703C157.633 61.8359 157.014 61.6211 156.285 61.4258C155.569 61.2174 154.775 60.9831 153.902 60.7227C153.46 60.6055 152.965 60.4753 152.418 60.332C151.871 60.1888 151.311 60.013 150.738 59.8047C150.178 59.5833 149.632 59.3294 149.098 59.043C148.564 58.7435 148.082 58.3854 147.652 57.9688C147.236 57.5391 146.897 57.0443 146.637 56.4844C146.389 55.9115 146.266 55.2539 146.266 54.5117C146.266 53.1576 146.5 51.9076 146.969 50.7617C147.451 49.6029 148.199 48.6003 149.215 47.7539C150.23 46.9076 151.526 46.2435 153.102 45.7617C154.677 45.2799 156.559 45.0391 158.746 45.0391C160.309 45.0391 161.663 45.2409 162.809 45.6445C163.954 46.0352 164.879 46.5951 165.582 47.3242C166.285 48.0534 166.76 48.9388 167.008 49.9805C167.268 51.0091 167.288 52.1615 167.066 53.4375H160.855C160.921 53.0469 160.914 52.6693 160.836 52.3047C160.758 51.9271 160.582 51.6016 160.309 51.3281C160.035 51.0417 159.651 50.8138 159.156 50.6445C158.674 50.4753 158.056 50.3906 157.301 50.3906C156.389 50.3906 155.634 50.4818 155.035 50.6641C154.436 50.8333 153.954 51.0547 153.59 51.3281C153.238 51.6016 152.984 51.9141 152.828 52.2656C152.685 52.6042 152.613 52.9427 152.613 53.2812C152.613 53.6849 152.743 54.0365 153.004 54.3359C153.277 54.6224 153.642 54.8763 154.098 55.0977C154.566 55.319 155.113 55.5143 155.738 55.6836C156.376 55.8398 157.06 55.9831 157.789 56.1133C158.961 56.4128 160.055 56.7448 161.07 57.1094C162.086 57.4609 162.965 57.9102 163.707 58.457C164.462 59.0039 165.055 59.668 165.484 60.4492C165.914 61.2174 166.129 62.168 166.129 63.3008C166.129 64.8633 165.797 66.25 165.133 67.4609C164.469 68.6589 163.557 69.6615 162.398 70.4688C161.24 71.276 159.872 71.888 158.297 72.3047C156.734 72.7214 155.048 72.9297 153.238 72.9297C151.897 72.9297 150.706 72.806 149.664 72.5586C148.622 72.3242 147.717 71.9987 146.949 71.582C146.194 71.1523 145.562 70.651 145.055 70.0781C144.56 69.5052 144.176 68.8932 143.902 68.2422C143.642 67.5781 143.479 66.888 143.414 66.1719C143.362 65.4427 143.401 64.7201 143.531 64.0039H149.723ZM175.213 59.0234L187.83 45.7031H195.038L183.631 57.5391L190.76 72.2656H183.455L178.807 62.0898L173.768 67.3047L172.889 72.2656H166.698L171.385 45.7031H177.577L175.213 59.0234ZM200.782 51.0156H193.36L194.278 45.7031H215.294L214.356 51.0156H206.954L203.184 72.2656H197.012L200.782 51.0156ZM211.468 60.8594C211.468 59.4271 211.683 58.0404 212.113 56.6992C212.555 55.3581 213.161 54.1016 213.929 52.9297C214.71 51.7578 215.635 50.6901 216.702 49.7266C217.77 48.75 218.935 47.9167 220.198 47.2266C221.461 46.5365 222.803 46.0026 224.222 45.625C225.641 45.2344 227.093 45.0391 228.577 45.0391C230.374 45.0391 232.028 45.3516 233.538 45.9766C235.049 46.5885 236.351 47.4349 237.445 48.5156C238.538 49.5833 239.391 50.8464 240.003 52.3047C240.615 53.763 240.921 55.332 240.921 57.0117C240.921 58.444 240.7 59.8307 240.257 61.1719C239.827 62.513 239.222 63.776 238.441 64.9609C237.659 66.1328 236.735 67.207 235.667 68.1836C234.599 69.1471 233.428 69.9805 232.152 70.6836C230.889 71.3737 229.547 71.9076 228.128 72.2852C226.709 72.6758 225.264 72.8711 223.792 72.8711C221.995 72.8711 220.342 72.5651 218.831 71.9531C217.321 71.3281 216.019 70.4753 214.925 69.3945C213.844 68.3138 212.998 67.0443 212.386 65.5859C211.774 64.1146 211.468 62.5391 211.468 60.8594ZM217.698 60.3125C217.698 61.3542 217.868 62.3177 218.206 63.2031C218.545 64.0755 219.02 64.8372 219.632 65.4883C220.257 66.1393 220.993 66.6471 221.839 67.0117C222.698 67.3763 223.636 67.5586 224.652 67.5586C225.524 67.5586 226.377 67.4414 227.21 67.207C228.043 66.9727 228.831 66.6406 229.573 66.2109C230.316 65.7812 230.999 65.2669 231.624 64.668C232.249 64.056 232.79 63.3854 233.245 62.6562C233.701 61.9141 234.053 61.1198 234.3 60.2734C234.56 59.4271 234.691 58.5417 234.691 57.6172C234.691 56.5755 234.515 55.612 234.163 54.7266C233.825 53.8411 233.349 53.0794 232.738 52.4414C232.126 51.7904 231.39 51.2826 230.53 50.918C229.671 50.5534 228.727 50.3711 227.698 50.3711C226.409 50.3711 225.166 50.6315 223.968 51.1523C222.77 51.6602 221.702 52.3633 220.765 53.2617C219.84 54.1471 219.098 55.1953 218.538 56.4062C217.978 57.6172 217.698 58.9193 217.698 60.3125ZM248.17 64.1211L246.744 72.2656H240.552L245.24 45.7031H256.705C257.942 45.7031 259.061 45.8984 260.064 46.2891C261.067 46.6667 261.92 47.207 262.623 47.9102C263.326 48.6003 263.866 49.4206 264.244 50.3711C264.634 51.3216 264.83 52.3633 264.83 53.4961C264.83 55.0195 264.53 56.4323 263.931 57.7344C263.345 59.0234 262.538 60.1432 261.509 61.0938C260.494 62.0443 259.302 62.7865 257.935 63.3203C256.568 63.8542 255.11 64.1211 253.56 64.1211H248.17ZM254.087 58.8086C254.647 58.8086 255.194 58.6914 255.728 58.457C256.262 58.2227 256.737 57.9036 257.154 57.5C257.571 57.0964 257.903 56.6276 258.15 56.0938C258.397 55.5469 258.521 54.9674 258.521 54.3555C258.521 53.8997 258.449 53.4701 258.306 53.0664C258.163 52.6628 257.955 52.3112 257.681 52.0117C257.421 51.6992 257.102 51.4583 256.724 51.2891C256.36 51.1068 255.956 51.0156 255.513 51.0156H250.494L249.107 58.8086H254.087Z" fill="#1E1E1E"/>
<path d="M261.336 72.9883H266.258L271.199 45H266.277L267.156 40H277.898L271.199 77.9492H260.457L261.336 72.9883Z" fill="#6D2EFF"/>
</svg>
