<svg width="68" height="17" viewBox="0 0 68 17" fill="none" xmlns="http://www.w3.org/2000/svg">
<path d="M7.47425 0.468311C8.19857 0.468311 8.82923 0.608805 9.36622 0.889791C9.90946 1.17078 10.3247 1.56416 10.6119 2.06994C10.8992 2.57571 11.0428 3.15954 11.0428 3.82142C11.0428 4.58321 10.8461 5.35436 10.4527 6.13488C10.0656 6.90915 9.49111 7.55542 8.72932 8.07368C7.97378 8.59195 7.07462 8.85108 6.03185 8.85108H2.42585L1.65782 13.2064H0L2.24789 0.468311H7.47425ZM6.17234 7.35249C6.78427 7.35249 7.33375 7.18702 7.8208 6.85608C8.30784 6.52514 8.68561 6.11302 8.95411 5.61973C9.22261 5.1202 9.35686 4.63316 9.35686 4.1586C9.35686 3.74649 9.27256 3.37496 9.10397 3.04402C8.93538 2.70684 8.68873 2.44146 8.36404 2.24789C8.04559 2.05433 7.67094 1.95754 7.24009 1.95754H3.64346L2.68811 7.35249H6.17234Z" fill="black"/>
<path d="M14.8132 13.478C13.9203 13.478 13.1336 13.2813 12.453 12.8879C11.7786 12.4883 11.2572 11.9482 10.8888 11.2676C10.5204 10.5807 10.3362 9.82205 10.3362 8.99157C10.3362 8.09242 10.5641 7.21199 11.0199 6.3503C11.4757 5.48236 12.1283 4.77053 12.9775 4.2148C13.8329 3.65907 14.8257 3.38121 15.9559 3.38121C16.8551 3.38121 17.645 3.58102 18.3256 3.98065C19.0062 4.38027 19.5307 4.92039 19.8991 5.601C20.2675 6.28161 20.4517 7.03716 20.4517 7.86763C20.4517 8.82298 20.2082 9.73151 19.7211 10.5932C19.2403 11.4549 18.5691 12.1511 17.7074 12.6819C16.8457 13.2126 15.881 13.478 14.8132 13.478ZM14.9818 11.9607C15.6812 11.9607 16.3243 11.7765 16.9113 11.4081C17.4982 11.0397 17.9634 10.5526 18.3068 9.94693C18.6503 9.335 18.822 8.68561 18.822 7.99875C18.822 7.43054 18.7065 6.91227 18.4754 6.44396C18.2444 5.96941 17.901 5.59476 17.4452 5.32002C16.9956 5.03903 16.4555 4.89854 15.8248 4.89854C15.113 4.89854 14.4605 5.07649 13.8673 5.43241C13.2803 5.78833 12.8151 6.26913 12.4717 6.87481C12.1345 7.48049 11.9659 8.14237 11.9659 8.86045C11.9659 9.43491 12.0814 9.95942 12.3125 10.434C12.5435 10.9023 12.8838 11.2738 13.3334 11.5486C13.7892 11.8233 14.3387 11.9607 14.9818 11.9607Z" fill="black"/>
<path d="M23.5291 0H25.1775L22.8453 13.2064H21.2063L23.5291 0Z" fill="black"/>
<path d="M25.5293 15.1077C25.8852 15.1077 26.1943 15.039 26.4566 14.9017C26.7188 14.7705 26.9592 14.5707 27.1778 14.3022C27.3963 14.0337 27.6367 13.6653 27.899 13.197L28.0395 12.9254L25.8946 3.65283H27.515L29.0698 10.4059L29.1634 11.2863L29.5287 10.4152L33.3501 3.66219L35.1859 3.65283L29.7722 12.9441C29.2227 13.887 28.7451 14.6019 28.3392 15.089C27.9333 15.5823 27.4931 15.9351 27.0186 16.1474C26.5502 16.3597 25.9695 16.4658 25.2764 16.4658H23.7029L23.9371 15.1077H25.5293Z" fill="black"/>
<path d="M37.7856 3.65283L37.4203 5.69466C37.8824 4.98283 38.4725 4.42086 39.1905 4.00874C39.9086 3.59663 40.6641 3.39057 41.4572 3.39057C42.2439 3.39057 42.9401 3.59039 43.5458 3.99001C44.1577 4.38964 44.6292 4.92976 44.9601 5.61037C45.2911 6.29098 45.4565 7.0434 45.4565 7.86763C45.4565 8.82298 45.213 9.73463 44.726 10.6026C44.2452 11.4643 43.5833 12.1605 42.7403 12.6912C41.9036 13.2157 40.9795 13.478 39.9679 13.478C39.406 13.478 38.8877 13.3687 38.4131 13.1502C37.9386 12.9316 37.539 12.635 37.2143 12.2604C36.8896 11.8857 36.6554 11.4674 36.5118 11.0053L36.3245 12.2885L35.5939 16.4658H33.9735L36.2402 3.65283H37.7856ZM39.9398 11.9794C40.6579 11.9794 41.3135 11.7952 41.9067 11.4268C42.5062 11.0584 42.9745 10.5713 43.3117 9.96566C43.6551 9.35374 43.8268 8.71059 43.8268 8.03622C43.8268 7.45551 43.7082 6.92788 43.4709 6.45333C43.2336 5.97253 42.8933 5.59164 42.45 5.31065C42.0129 5.02966 41.4977 4.88917 40.9045 4.88917C40.3301 4.88917 39.7619 5.04527 39.1999 5.35748C38.6442 5.66344 38.1696 6.08492 37.7762 6.62192C37.3828 7.15267 37.1362 7.73962 37.0363 8.38277C37.0113 8.52639 36.9988 8.68873 36.9988 8.86981C36.9988 9.37559 37.1081 9.86888 37.3266 10.3497C37.5452 10.8242 37.873 11.2145 38.3101 11.5205C38.7534 11.8264 39.2967 11.9794 39.9398 11.9794Z" fill="black"/>
<path d="M50.2198 13.478C49.4081 13.478 48.6962 13.2813 48.0843 12.8879C47.4724 12.4945 47.001 11.9607 46.67 11.2863C46.3453 10.6119 46.183 9.86888 46.183 9.05714C46.183 8.14549 46.414 7.25258 46.8761 6.3784C47.3381 5.49797 47.9813 4.7799 48.8055 4.22417C49.636 3.66844 50.5695 3.39057 51.606 3.39057C52.474 3.39057 53.2139 3.60287 53.8258 4.02748C54.444 4.44583 54.8842 5.03591 55.1465 5.79769L55.5211 3.65283H57.0853L55.3993 13.2064H53.8258L54.1911 11.1739C53.9101 11.6547 53.5573 12.0699 53.1327 12.4196C52.7081 12.763 52.2429 13.0253 51.7371 13.2064C51.2376 13.3875 50.7318 13.478 50.2198 13.478ZM50.7724 11.97C51.3656 11.97 51.9338 11.8171 52.4771 11.5111C53.0266 11.1989 53.4917 10.7743 53.8726 10.2373C54.2535 9.70029 54.5002 9.11021 54.6126 8.46707C54.6438 8.30472 54.6594 8.10491 54.6594 7.86763C54.6594 7.35561 54.5501 6.87481 54.3316 6.42523C54.113 5.96941 53.779 5.601 53.3294 5.32002C52.8798 5.03903 52.3272 4.89854 51.6716 4.89854C50.991 4.89854 50.3541 5.07962 49.7609 5.44178C49.1677 5.79769 48.6931 6.28161 48.3372 6.89354C47.9875 7.50547 47.8127 8.17359 47.8127 8.89791C47.8127 9.45364 47.9282 9.96566 48.1592 10.434C48.3903 10.9023 48.7275 11.2769 49.1708 11.5579C49.6204 11.8327 50.1543 11.97 50.7724 11.97Z" fill="black"/>
<path d="M58.0833 15.1077C58.4392 15.1077 58.7483 15.039 59.0106 14.9017C59.2728 14.7705 59.5132 14.5707 59.7318 14.3022C59.9503 14.0337 60.1907 13.6653 60.453 13.197L60.5935 12.9254L58.4486 3.65283H60.069L61.6238 10.4059L61.7174 11.2863L62.0827 10.4152L65.9041 3.66219L67.7399 3.65283L62.3262 12.9441C61.7767 13.887 61.2991 14.6019 60.8932 15.089C60.4873 15.5823 60.0471 15.9351 59.5726 16.1474C59.1042 16.3597 58.5235 16.4658 57.8304 16.4658H56.2569L56.4911 15.1077H58.0833Z" fill="black"/>
</svg>
