<svg width="40" height="40" viewBox="0 0 40 40" fill="none" xmlns="http://www.w3.org/2000/svg">
<g clip-path="url(#clip0_61_71991)">
<path d="M20 40C31.0834 40 40 31.0834 40 20C40 8.9166 31.0834 6.63617e-10 20 4.26991e-10C8.9166 1.90365e-10 6.6456e-10 8.9166 4.27934e-10 20C1.91308e-10 31.0834 8.9166 40 20 40Z" fill="#2775CA"/>
<path d="M25.4986 23.1668C25.4986 20.2502 23.7486 19.2502 20.2486 18.8336C17.7486 18.5002 17.2486 17.8336 17.2486 16.6668C17.2486 15.5 18.082 14.7502 19.7486 14.7502C21.2486 14.7502 22.082 15.2502 22.4986 16.5002C22.582 16.7502 22.832 16.9168 23.082 16.9168L24.4152 16.9168C24.7486 16.9168 24.9986 16.6668 24.9986 16.3336C24.9986 16.2782 24.9939 16.2226 24.9829 16.1682C24.7532 15.0323 24.0738 14.0634 23.1268 13.464C22.1707 12.8588 21.2486 11.9652 21.2486 10.8336C21.2486 10.1501 20.2378 10.1668 19.5542 10.1668L19.332 10.1668C19.0521 10.1668 18.831 10.343 18.7179 10.6462C18.6726 10.7676 18.6652 10.8989 18.6652 11.0285C18.6652 12.0141 17.9094 12.8045 17.0141 13.2166C15.489 13.9186 14.582 15.2567 14.582 16.8336C14.582 19.5836 16.2486 20.6668 19.7486 21.0836C22.082 21.5002 22.832 22.0002 22.832 23.3336C22.832 24.667 21.6652 25.5836 20.082 25.5836C17.9152 25.5836 17.1652 24.6668 16.9152 23.4168C16.832 23.0836 16.582 22.9168 16.332 22.9168L14.9152 22.9168C14.582 22.9168 14.332 23.1668 14.332 23.5002C14.332 23.5558 14.3363 23.6115 14.3458 23.6662C14.6044 25.1524 15.3826 26.3338 16.8351 27.0249C17.8735 27.5189 18.7486 28.4336 18.7486 29.5836C18.7486 30.2671 19.7594 30.2502 20.4429 30.2502L20.6652 30.2502C20.9409 30.2502 21.1595 30.0794 21.2741 29.7848C21.3246 29.6549 21.332 29.5135 21.332 29.3741C21.332 28.3409 22.1083 27.5042 23.0303 27.0379C24.5581 26.2652 25.4986 24.8571 25.4986 23.1668Z" fill="white"/>
<path d="M16.2497 32.6665C16.2497 32.0487 15.4501 31.8212 14.8858 31.5696C8.95937 28.928 6.02579 22.0426 8.33307 15.9165C9.58307 12.4165 12.3331 9.74994 15.7497 8.49994C16.0831 8.33334 16.2497 8.08334 16.2497 7.66654L16.2497 6.49994C16.2497 6.20626 16.1204 5.97729 15.8617 5.87004C15.7893 5.84003 15.7222 5.83042 15.6441 5.83647C15.4907 5.84836 15.3386 5.94048 15.1927 5.98903C7.41835 8.57564 3.18991 16.9082 5.66627 24.7499C7.14526 29.3512 10.6497 32.8993 15.2208 34.4357C15.3504 34.4793 15.4759 34.5435 15.6116 34.5609C15.7505 34.5788 15.8804 34.5413 15.9813 34.4617C16.1635 34.318 16.2497 34.0654 16.2497 33.8333L16.2497 32.6665ZM24.7731 5.98011C24.647 5.937 24.525 5.87457 24.393 5.85628C24.2522 5.83677 24.1204 5.87412 24.0182 5.95468C23.8358 6.09842 23.7497 6.35114 23.7497 6.58334L23.7497 7.74994C23.7497 8.41927 24.5746 8.68573 25.1842 8.96204C31.0632 11.6267 33.9644 18.4817 31.6663 24.5833C30.4163 28.0833 27.6663 30.7499 24.2497 31.9999C23.9163 32.1665 23.7497 32.4165 23.7497 32.8333L23.7497 33.9999C23.7497 34.2936 23.8789 34.5226 24.1376 34.6298C24.21 34.6599 24.2772 34.6695 24.3553 34.6634C24.5086 34.6515 24.6607 34.5594 24.8066 34.5109C32.581 31.9242 36.8094 23.5917 34.3331 15.7499C32.8539 11.0658 29.2675 7.5161 24.7731 5.98011Z" fill="white"/>
</g>
<defs>
<clipPath id="clip0_61_71991">
<rect width="40" height="40" fill="white"/>
</clipPath>
</defs>
</svg>
