<svg width="20" height="20" viewBox="0 0 20 20" fill="none" xmlns="http://www.w3.org/2000/svg">
<path d="M17.084 8.4915H14.6757C12.7007 8.4915 11.0923 6.88317 11.0923 4.90817V2.49984C11.0923 2.0415 10.7173 1.6665 10.259 1.6665H6.72565C4.15898 1.6665 2.08398 3.33317 2.08398 6.30817V13.6915C2.08398 16.6665 4.15898 18.3332 6.72565 18.3332H13.2757C15.8423 18.3332 17.9173 16.6665 17.9173 13.6915V9.32484C17.9173 8.8665 17.5423 8.4915 17.084 8.4915ZM10.234 13.1498L8.56732 14.8165C8.50898 14.8748 8.43398 14.9248 8.35898 14.9498C8.28398 14.9832 8.20898 14.9998 8.12565 14.9998C8.04232 14.9998 7.96732 14.9832 7.89232 14.9498C7.82565 14.9248 7.75898 14.8748 7.70898 14.8248C7.70065 14.8165 7.69232 14.8165 7.69232 14.8082L6.02565 13.1415C5.78398 12.8998 5.78398 12.4998 6.02565 12.2582C6.26732 12.0165 6.66732 12.0165 6.90898 12.2582L7.50065 12.8665V9.37484C7.50065 9.03317 7.78398 8.74984 8.12565 8.74984C8.46732 8.74984 8.75065 9.03317 8.75065 9.37484V12.8665L9.35065 12.2665C9.59232 12.0248 9.99232 12.0248 10.234 12.2665C10.4757 12.5082 10.4757 12.9082 10.234 13.1498Z" fill="#999999"/>
<path d="M14.5241 7.34158C15.3158 7.34991 16.4158 7.34991 17.3574 7.34991C17.8324 7.34991 18.0824 6.79158 17.7491 6.45825C16.5491 5.24991 14.3991 3.07491 13.1658 1.84158C12.8241 1.49991 12.2324 1.73325 12.2324 2.20825V5.11658C12.2324 6.33325 13.2658 7.34158 14.5241 7.34158Z" fill="#999999"/>
</svg>
