<svg width="16" height="16" viewBox="0 0 16 16" fill="none" xmlns="http://www.w3.org/2000/svg">
<path d="M14.094 6.6001H8.50065V10.2534C8.50065 10.5268 8.27398 10.7534 8.00065 10.7534C7.72732 10.7534 7.50065 10.5268 7.50065 10.2534V6.6001H1.90732C1.58732 6.6001 1.33398 6.85343 1.33398 7.17343C1.33398 11.1001 4.07398 13.8401 8.00065 13.8401C11.9273 13.8401 14.6673 11.1001 14.6673 7.17343C14.6673 6.85343 14.414 6.6001 14.094 6.6001Z" fill="#C8C8C8"/>
<path d="M8.49961 3.86662L9.53961 4.90662C9.73294 5.09995 10.0529 5.09995 10.2463 4.90662C10.4396 4.71329 10.4396 4.39329 10.2463 4.19995L8.34628 2.30662C8.15294 2.11329 7.83294 2.11329 7.63961 2.30662L5.74628 4.20662C5.65294 4.30662 5.59961 4.43329 5.59961 4.55995C5.59961 4.68662 5.64628 4.81329 5.74628 4.91329C5.93961 5.10662 6.25961 5.10662 6.45294 4.91329L7.49294 3.87329V6.59995H8.49294V3.86662H8.49961Z" fill="#C8C8C8"/>
</svg>
