<svg width="16" height="16" viewBox="0 0 16 16" fill="none" xmlns="http://www.w3.org/2000/svg">
<path d="M7.99935 1.3335C6.15935 1.3335 4.66602 2.82683 4.66602 4.66683C4.66602 6.50683 6.15935 8.00016 7.99935 8.00016C9.83935 8.00016 11.3327 6.50683 11.3327 4.66683C11.3327 2.82683 9.83935 1.3335 7.99935 1.3335ZM9.44602 4.34016L7.64602 6.14016C7.57935 6.20683 7.43935 6.2735 7.34602 6.2935L6.65935 6.38683C6.40602 6.42016 6.23268 6.24683 6.27268 6.00016L6.37268 5.3135C6.38602 5.22016 6.45268 5.08016 6.52602 5.0135L8.32602 3.2135C8.63268 2.90683 8.99935 2.76016 9.45268 3.2135C9.89935 3.6735 9.75268 4.0335 9.44602 4.34016Z" fill="#ADADAD"/>
<path d="M7.99945 9.3335C4.65945 9.3335 1.93945 11.5735 1.93945 14.3335C1.93945 14.5202 2.08612 14.6668 2.27279 14.6668H13.7261C13.9128 14.6668 14.0595 14.5202 14.0595 14.3335C14.0595 11.5735 11.3395 9.3335 7.99945 9.3335Z" fill="#ADADAD"/>
</svg>
