<svg xmlns="http://www.w3.org/2000/svg" width="24" height="24" viewBox="0 0 24 24" fill="none">
  <g clip-path="url(#clip0_1718_41079)">
    <path d="M14.4565 15.1722L12.96 15.5372L14.8135 23.5621L9.89047 16.4186L4.96543 17.8767L6.82089 11.9937L1.91602 5.13656L7.97652 8.6337L8.55333 6.76009L9.11198 4.94496L9.89047 2.41992L10.669 5.84244L11.8044 10.8441L17.0784 13.8915L17.8629 14.3433L17.2195 14.5006L14.4565 15.1722Z" fill="#FEF2FF" stroke="#F14CFF" stroke-width="0.403361" stroke-linecap="round" stroke-linejoin="round"/>
    <path d="M21.8967 12.3263L17.8632 14.3431L17.0786 13.8913L11.8047 10.844L15.8383 8.82715L21.8967 12.3263Z" fill="#FEF2FF" stroke="#F14CFF" stroke-width="0.403361" stroke-linecap="round" stroke-linejoin="round"/>
    <path d="M9.11198 4.94533L8.55333 6.76045L7.97652 8.63407L1.91602 5.13692L5.94963 3.12012L9.11198 4.94533Z" fill="#FEF2FF" stroke="#F14CFF" stroke-width="0.403361" stroke-linecap="round" stroke-linejoin="round"/>
    <path d="M18.846 21.5457L14.8124 23.5625L12.959 15.5376L14.4555 15.1726L17.2185 14.501L18.846 21.5457Z" fill="#FEF2FF" stroke="#F14CFF" stroke-width="0.403361" stroke-linecap="round" stroke-linejoin="round"/>
    <path d="M15.8382 8.82752L11.8046 10.8443L10.6691 5.84265L9.89062 2.42013L13.9242 0.40332L15.8382 8.82752Z" fill="#FEF2FF" stroke="#F14CFF" stroke-width="0.403361" stroke-linecap="round" stroke-linejoin="round"/>
  </g>
  <defs>
    <clipPath id="clip0_1718_41079">
      <rect width="24" height="24" fill="white"/>
    </clipPath>
  </defs>
</svg>